{
  "accessors": [
    {
      "bufferView": 2,
      "componentType": 5126,
      "count": 65534,
      "max": [
        75.76839447021484,
        5.034087181091309,
        75.47782897949219
      ],
      "min": [
        57.717838287353516,
        -1.7551932334899902,
        -75.47782897949219
      ],
      "type": "VEC3"
    },
    {
      "bufferView": 2,
      "byteOffset": 786408,
      "componentType": 5126,
      "count": 65534,
      "max": [
        0.6892073750495911,
        1.0,
        0.4123062193393707
      ],
      "min": [
        -0.3773137032985687,
        0.7189171314239502,
        -0.2775123119354248
      ],
      "type": "VEC3"
    },
    {
      "bufferView": 3,
      "componentType": 5126,
      "count": 65534,
      "max": [
        1.0,
        0.3814629018306732,
        0.4551577568054199,
        -1.0
      ],
      "min": [
        0.7224960923194885,
        -0.6913748383522034,
        -0.5853590965270996,
        -1.0
      ],
      "type": "VEC4"
    },
    {
      "bufferView": 1,
      "componentType": 5126,
      "count": 65534,
      "max": [
        5.500000953674316,
        5.500000476837158
      ],
      "min": [
        4.323529243469238,
        -4.500000953674316
      ],
      "type": "VEC2"
    },
    {
      "bufferView": 1,
      "byteOffset": 524272,
      "componentType": 5126,
      "count": 65534,
      "max": [
        5.500000953674316,
        5.500000476837158
      ],
      "min": [
        4.323529243469238,
        -4.500000953674316
      ],
      "type": "VEC2"
    },
    {
      "bufferView": 1,
      "byteOffset": 1048544,
      "componentType": 5126,
      "count": 65534,
      "max": [
        5.500000953674316,
        5.500000476837158
      ],
      "min": [
        4.323529243469238,
        -4.500000953674316
      ],
      "type": "VEC2"
    },
    {
      "bufferView": 1,
      "byteOffset": 1572816,
      "componentType": 5126,
      "count": 65534,
      "max": [
        5.500000953674316,
        5.500000476837158
      ],
      "min": [
        4.323529243469238,
        -4.500000953674316
      ],
      "type": "VEC2"
    },
    {
      "bufferView": 0,
      "componentType": 5125,
      "count": 105951,
      "type": "SCALAR"
    },
    {
      "bufferView": 2,
      "byteOffset": 1572816,
      "componentType": 5126,
      "count": 65532,
      "max": [
        61.09058380126953,
        5.14548921585083,
        75.4779281616211
      ],
      "min": [
        34.039005279541016,
        -0.43842554092407227,
        -75.47782897949219
      ],
      "type": "VEC3"
    },
    {
      "bufferView": 2,
      "byteOffset": 2359200,
      "componentType": 5126,
      "count": 65532,
      "max": [
        0.3901946544647217,
        1.0,
        0.5543128252029419
      ],
      "min": [
        -0.5549739599227905,
        0.8168348073959351,
        -0.30350568890571594
      ],
      "type": "VEC3"
    },
    {
      "bufferView": 3,
      "byteOffset": 1048544,
      "componentType": 5126,
      "count": 65532,
      "max": [
        1.0,
        0.5532703399658203,
        0.05151202529668808,
        -1.0
      ],
      "min": [
        0.8309429287910461,
        -0.3933286964893341,
        -0.06580810248851776,
        -1.0
      ],
      "type": "VEC4"
    },
    {
      "bufferView": 1,
      "byteOffset": 2097088,
      "componentType": 5126,
      "count": 65532,
      "max": [
        4.5196099281311035,
        5.500000476837158
      ],
      "min": [
        2.754901885986328,
        -4.500000953674316
      ],
      "type": "VEC2"
    },
    {
      "bufferView": 1,
      "byteOffset": 2621344,
      "componentType": 5126,
      "count": 65532,
      "max": [
        4.5196099281311035,
        5.500000476837158
      ],
      "min": [
        2.754901885986328,
        -4.500000953674316
      ],
      "type": "VEC2"
    },
    {
      "bufferView": 1,
      "byteOffset": 3145600,
      "componentType": 5126,
      "count": 65532,
      "max": [
        4.5196099281311035,
        5.500000476837158
      ],
      "min": [
        2.754901885986328,
        -4.500000953674316
      ],
      "type": "VEC2"
    },
    {
      "bufferView": 1,
      "byteOffset": 3669856,
      "componentType": 5126,
      "count": 65532,
      "max": [
        4.5196099281311035,
        5.500000476837158
      ],
      "min": [
        2.754901885986328,
        -4.500000953674316
      ],
      "type": "VEC2"
    },
    {
      "bufferView": 0,
      "byteOffset": 423804,
      "componentType": 5125,
      "count": 101001,
      "type": "SCALAR"
    },
    {
      "bufferView": 2,
      "byteOffset": 3145584,
      "componentType": 5126,
      "count": 65534,
      "max": [
        45.905250549316406,
        6.798916816711426,
        75.55882263183594
      ],
      "min": [
        -75.47782897949219,
        0.0,
        -75.47782897949219
      ],
      "type": "VEC3"
    },
    {
      "bufferView": 2,
      "byteOffset": 3931992,
      "componentType": 5126,
      "count": 65534,
      "max": [
        0.6170925498008728,
        1.0,
        0.4233896732330322
      ],
      "min": [
        -0.4522738754749298,
        0.7297104597091675,
        -0.6252108216285706
      ],
      "type": "VEC3"
    },
    {
      "bufferView": 3,
      "byteOffset": 2097056,
      "componentType": 5126,
      "count": 65534,
      "max": [
        1.0,
        0.45284950733184814,
        0.04239516332745552,
        -1.0
      ],
      "min": [
        0.7868887186050415,
        -0.6170907616615295,
        -0.585354208946228,
        -1.0
      ],
      "type": "VEC4"
    },
    {
      "bufferView": 1,
      "byteOffset": 4194112,
      "componentType": 5126,
      "count": 65534,
      "max": [
        3.539217472076416,
        5.500000476837158
      ],
      "min": [
        -4.500000476837158,
        -4.500000953674316
      ],
      "type": "VEC2"
    },
    {
      "bufferView": 1,
      "byteOffset": 4718384,
      "componentType": 5126,
      "count": 65534,
      "max": [
        3.539217472076416,
        5.500000476837158
      ],
      "min": [
        -4.500000476837158,
        -4.500000953674316
      ],
      "type": "VEC2"
    },
    {
      "bufferView": 1,
      "byteOffset": 5242656,
      "componentType": 5126,
      "count": 65534,
      "max": [
        3.539217472076416,
        5.500000476837158
      ],
      "min": [
        -4.500000476837158,
        -4.500000953674316
      ],
      "type": "VEC2"
    },
    {
      "bufferView": 1,
      "byteOffset": 5766928,
      "componentType": 5126,
      "count": 65534,
      "max": [
        3.539217472076416,
        5.500000476837158
      ],
      "min": [
        -4.500000476837158,
        -4.500000953674316
      ],
      "type": "VEC2"
    },
    {
      "bufferView": 0,
      "byteOffset": 827808,
      "componentType": 5125,
      "count": 175269,
      "type": "SCALAR"
    },
    {
      "bufferView": 2,
      "byteOffset": 4718400,
      "componentType": 5126,
      "count": 65534,
      "max": [
        -24.715280532836914,
        9.63500690460205,
        75.9085693359375
      ],
      "min": [
        -75.47782897949219,
        0.0,
        -72.51791381835938
      ],
      "type": "VEC3"
    },
    {
      "bufferView": 2,
      "byteOffset": 5504808,
      "componentType": 5126,
      "count": 65534,
      "max": [
        0.713030993938446,
        1.0,
        0.8246839046478271
      ],
      "min": [
        -0.5921998023986816,
        0.5654889941215515,
        -0.6305864453315735
      ],
      "type": "VEC3"
    },
    {
      "bufferView": 3,
      "byteOffset": 3145600,
      "componentType": 5126,
      "count": 65534,
      "max": [
        1.0,
        0.5976375937461853,
        0.10025457292795181,
        -1.0
      ],
      "min": [
        0.701050877571106,
        -0.7131103277206421,
        -0.18549811840057373,
        -1.0
      ],
      "type": "VEC4"
    },
    {
      "bufferView": 1,
      "byteOffset": 6291200,
      "componentType": 5126,
      "count": 65534,
      "max": [
        -1.1666659116744995,
        5.500000476837158
      ],
      "min": [
        -4.500000476837158,
        -4.3039231300354
      ],
      "type": "VEC2"
    },
    {
      "bufferView": 1,
      "byteOffset": 6815472,
      "componentType": 5126,
      "count": 65534,
      "max": [
        -1.1666659116744995,
        5.500000476837158
      ],
      "min": [
        -4.500000476837158,
        -4.3039231300354
      ],
      "type": "VEC2"
    },
    {
      "bufferView": 1,
      "byteOffset": 7339744,
      "componentType": 5126,
      "count": 65534,
      "max": [
        -1.1666659116744995,
        5.500000476837158
      ],
      "min": [
        -4.500000476837158,
        -4.3039231300354
      ],
      "type": "VEC2"
    },
    {
      "bufferView": 1,
      "byteOffset": 7864016,
      "componentType": 5126,
      "count": 65534,
      "max": [
        -1.1666659116744995,
        5.500000476837158
      ],
      "min": [
        -4.500000476837158,
        -4.3039231300354
      ],
      "type": "VEC2"
    },
    {
      "bufferView": 0,
      "byteOffset": 1528884,
      "componentType": 5125,
      "count": 112635,
      "type": "SCALAR"
    },
    {
      "bufferView": 2,
      "byteOffset": 6291216,
      "componentType": 5126,
      "count": 65532,
      "max": [
        59.938270568847656,
        12.22728443145752,
        75.71675872802734
      ],
      "min": [
        -75.62068176269531,
        0.0,
        -75.47782897949219
      ],
      "type": "VEC3"
    },
    {
      "bufferView": 2,
      "byteOffset": 7077600,
      "componentType": 5126,
      "count": 65532,
      "max": [
        0.7915385365486145,
        1.0,
        0.8187996745109558
      ],
      "min": [
        -0.8565791845321655,
        0.45719438791275024,
        -0.47220808267593384
      ],
      "type": "VEC3"
    },
    {
      "bufferView": 3,
      "byteOffset": 4194144,
      "componentType": 5126,
      "count": 65532,
      "max": [
        1.0,
        0.854034423828125,
        0.5929234623908997,
        -1.0
      ],
      "min": [
        0.5122977495193481,
        -0.778080403804779,
        -0.1821650266647339,
        -1.0
      ],
      "type": "VEC4"
    },
    {
      "bufferView": 1,
      "byteOffset": 8388288,
      "componentType": 5126,
      "count": 65532,
      "max": [
        4.4705891609191895,
        5.500000476837158
      ],
      "min": [
        -4.500000476837158,
        -4.500000953674316
      ],
      "type": "VEC2"
    },
    {
      "bufferView": 1,
      "byteOffset": 8912544,
      "componentType": 5126,
      "count": 65532,
      "max": [
        4.4705891609191895,
        5.500000476837158
      ],
      "min": [
        -4.500000476837158,
        -4.500000953674316
      ],
      "type": "VEC2"
    },
    {
      "bufferView": 1,
      "byteOffset": 9436800,
      "componentType": 5126,
      "count": 65532,
      "max": [
        4.4705891609191895,
        5.500000476837158
      ],
      "min": [
        -4.500000476837158,
        -4.500000953674316
      ],
      "type": "VEC2"
    },
    {
      "bufferView": 1,
      "byteOffset": 9961056,
      "componentType": 5126,
      "count": 65532,
      "max": [
        4.4705891609191895,
        5.500000476837158
      ],
      "min": [
        -4.500000476837158,
        -4.500000953674316
      ],
      "type": "VEC2"
    },
    {
      "bufferView": 0,
      "byteOffset": 1979424,
      "componentType": 5125,
      "count": 108216,
      "type": "SCALAR"
    },
    {
      "bufferView": 2,
      "byteOffset": 7863984,
      "componentType": 5126,
      "count": 65533,
      "max": [
        -11.099671363830566,
        12.483352661132813,
        75.51712036132813
      ],
      "min": [
        -63.94722366333008,
        0.0,
        -69.1880111694336
      ],
      "type": "VEC3"
    },
    {
      "bufferView": 2,
      "byteOffset": 8650380,
      "componentType": 5126,
      "count": 65533,
      "max": [
        0.8351820111274719,
        1.0,
        0.5645082592964172
      ],
      "min": [
        -0.779438316822052,
        0.5405017733573914,
        -0.5885124206542969
      ],
      "type": "VEC3"
    },
    {
      "bufferView": 3,
      "byteOffset": 5242656,
      "componentType": 5126,
      "count": 65533,
      "max": [
        1.0,
        0.8278868198394775,
        0.18162792921066284,
        -1.0
      ],
      "min": [
        0.5470922589302063,
        -0.8356998562812805,
        -0.18207991123199463,
        -1.0
      ],
      "type": "VEC4"
    },
    {
      "bufferView": 1,
      "byteOffset": 10485312,
      "componentType": 5126,
      "count": 65533,
      "max": [
        -0.23529338836669922,
        5.500000476837158
      ],
      "min": [
        -3.715686798095703,
        -4.083334445953369
      ],
      "type": "VEC2"
    },
    {
      "bufferView": 1,
      "byteOffset": 11009576,
      "componentType": 5126,
      "count": 65533,
      "max": [
        -0.23529338836669922,
        5.500000476837158
      ],
      "min": [
        -3.715686798095703,
        -4.083334445953369
      ],
      "type": "VEC2"
    },
    {
      "bufferView": 1,
      "byteOffset": 11533840,
      "componentType": 5126,
      "count": 65533,
      "max": [
        -0.23529338836669922,
        5.500000476837158
      ],
      "min": [
        -3.715686798095703,
        -4.083334445953369
      ],
      "type": "VEC2"
    },
    {
      "bufferView": 1,
      "byteOffset": 12058104,
      "componentType": 5126,
      "count": 65533,
      "max": [
        -0.23529338836669922,
        5.500000476837158
      ],
      "min": [
        -3.715686798095703,
        -4.083334445953369
      ],
      "type": "VEC2"
    },
    {
      "bufferView": 0,
      "byteOffset": 2412288,
      "componentType": 5125,
      "count": 99612,
      "type": "SCALAR"
    },
    {
      "bufferView": 2,
      "byteOffset": 9436776,
      "componentType": 5126,
      "count": 65534,
      "max": [
        5.9198384284973145,
        12.813820838928223,
        75.47783660888672
      ],
      "min": [
        -16.29849624633789,
        0.0,
        -69.1880111694336
      ],
      "type": "VEC3"
    },
    {
      "bufferView": 2,
      "byteOffset": 10223184,
      "componentType": 5126,
      "count": 65534,
      "max": [
        0.5321870446205139,
        1.0,
        0.8946093320846558
      ],
      "min": [
        -0.7600345611572266,
        0.4337967038154602,
        -0.8624770641326904
      ],
      "type": "VEC3"
    },
    {
      "bufferView": 3,
      "byteOffset": 6291184,
      "componentType": 5126,
      "count": 65534,
      "max": [
        1.0,
        0.7761650085449219,
        0.13962188363075256,
        -1.0
      ],
      "min": [
        0.629247784614563,
        -0.5355157852172852,
        -0.09370635449886322,
        -1.0
      ],
      "type": "VEC4"
    },
    {
      "bufferView": 1,
      "byteOffset": 12582368,
      "componentType": 5126,
      "count": 65534,
      "max": [
        0.8921578526496887,
        5.500000476837158
      ],
      "min": [
        -0.5784316062927246,
        -4.083334445953369
      ],
      "type": "VEC2"
    },
    {
      "bufferView": 1,
      "byteOffset": 13106640,
      "componentType": 5126,
      "count": 65534,
      "max": [
        0.8921578526496887,
        5.500000476837158
      ],
      "min": [
        -0.5784316062927246,
        -4.083334445953369
      ],
      "type": "VEC2"
    },
    {
      "bufferView": 1,
      "byteOffset": 13630912,
      "componentType": 5126,
      "count": 65534,
      "max": [
        0.8921578526496887,
        5.500000476837158
      ],
      "min": [
        -0.5784316062927246,
        -4.083334445953369
      ],
      "type": "VEC2"
    },
    {
      "bufferView": 1,
      "byteOffset": 14155184,
      "componentType": 5126,
      "count": 65534,
      "max": [
        0.8921578526496887,
        5.500000476837158
      ],
      "min": [
        -0.5784316062927246,
        -4.083334445953369
      ],
      "type": "VEC2"
    },
    {
      "bufferView": 0,
      "byteOffset": 2810736,
      "componentType": 5125,
      "count": 99318,
      "type": "SCALAR"
    },
    {
      "bufferView": 2,
      "byteOffset": 11009592,
      "componentType": 5126,
      "count": 65532,
      "max": [
        25.529266357421875,
        11.398502349853516,
        75.4778060913086
      ],
      "min": [
        1.4799525737762451,
        0.0,
        -72.51791381835938
      ],
      "type": "VEC3"
    },
    {
      "bufferView": 2,
      "byteOffset": 11795976,
      "componentType": 5126,
      "count": 65532,
      "max": [
        0.6795000433921814,
        1.0,
        0.8474571108818054
      ],
      "min": [
        -0.4960781931877136,
        0.527335524559021,
        -0.7159170508384705
      ],
      "type": "VEC3"
    },
    {
      "bufferView": 3,
      "byteOffset": 7339728,
      "componentType": 5126,
      "count": 65532,
      "max": [
        1.0,
        0.49613165855407715,
        0.13924220204353333,
        -1.0
      ],
      "min": [
        0.714753270149231,
        -0.6985089778900146,
        -0.1356377899646759,
        -1.0
      ],
      "type": "VEC4"
    },
    {
      "bufferView": 1,
      "byteOffset": 14679456,
      "componentType": 5126,
      "count": 65532,
      "max": [
        2.1911778450012207,
        5.500000476837158
      ],
      "min": [
        0.5980401039123535,
        -4.303922653198242
      ],
      "type": "VEC2"
    },
    {
      "bufferView": 1,
      "byteOffset": 15203712,
      "componentType": 5126,
      "count": 65532,
      "max": [
        2.1911778450012207,
        5.500000476837158
      ],
      "min": [
        0.5980401039123535,
        -4.303922653198242
      ],
      "type": "VEC2"
    },
    {
      "bufferView": 1,
      "byteOffset": 15727968,
      "componentType": 5126,
      "count": 65532,
      "max": [
        2.1911778450012207,
        5.500000476837158
      ],
      "min": [
        0.5980401039123535,
        -4.303922653198242
      ],
      "type": "VEC2"
    },
    {
      "bufferView": 1,
      "byteOffset": 16252224,
      "componentType": 5126,
      "count": 65532,
      "max": [
        2.1911778450012207,
        5.500000476837158
      ],
      "min": [
        0.5980401039123535,
        -4.303922653198242
      ],
      "type": "VEC2"
    },
    {
      "bufferView": 0,
      "byteOffset": 3208008,
      "componentType": 5125,
      "count": 99855,
      "type": "SCALAR"
    },
    {
      "bufferView": 2,
      "byteOffset": 12582360,
      "componentType": 5126,
      "count": 63715,
      "max": [
        42.9220085144043,
        4.212557792663574,
        75.47782897949219
      ],
      "min": [
        22.046091079711914,
        -0.03985932096838951,
        -72.51791381835938
      ],
      "type": "VEC3"
    },
    {
      "bufferView": 2,
      "byteOffset": 13346940,
      "componentType": 5126,
      "count": 63715,
      "max": [
        0.49928513169288635,
        1.0,
        0.5731010437011719
      ],
      "min": [
        -0.3446910083293915,
        0.8020958304405212,
        -0.5686963200569153
      ],
      "type": "VEC3"
    },
    {
      "bufferView": 3,
      "byteOffset": 8388240,
      "componentType": 5126,
      "count": 63715,
      "max": [
        1.0,
        0.3576734662055969,
        0.03605632856488228,
        -1.0
      ],
      "min": [
        0.8664228916168213,
        -0.4993109107017517,
        -0.03730186074972153,
        -1.0
      ],
      "type": "VEC4"
    },
    {
      "bufferView": 1,
      "byteOffset": 16776480,
      "componentType": 5126,
      "count": 63715,
      "max": [
        3.3431382179260254,
        5.500000476837158
      ],
      "min": [
        1.9705883264541626,
        -4.303922653198242
      ],
      "type": "VEC2"
    },
    {
      "bufferView": 1,
      "byteOffset": 17286200,
      "componentType": 5126,
      "count": 63715,
      "max": [
        3.3431382179260254,
        5.500000476837158
      ],
      "min": [
        1.9705883264541626,
        -4.303922653198242
      ],
      "type": "VEC2"
    },
    {
      "bufferView": 1,
      "byteOffset": 17795920,
      "componentType": 5126,
      "count": 63715,
      "max": [
        3.3431382179260254,
        5.500000476837158
      ],
      "min": [
        1.9705883264541626,
        -4.303922653198242
      ],
      "type": "VEC2"
    },
    {
      "bufferView": 1,
      "byteOffset": 18305640,
      "componentType": 5126,
      "count": 63715,
      "max": [
        3.3431382179260254,
        5.500000476837158
      ],
      "min": [
        1.9705883264541626,
        -4.303922653198242
      ],
      "type": "VEC2"
    },
    {
      "bufferView": 0,
      "byteOffset": 3607428,
      "componentType": 5125,
      "count": 96927,
      "type": "SCALAR"
    },
    {
      "bufferView": 2,
      "byteOffset": 14111520,
      "componentType": 5126,
      "count": 233,
      "max": [
        31.81665802001953,
        0.4543057084083557,
        66.49652099609375
      ],
      "min": [
        -9.539813041687012,
        -0.03266870230436325,
        -1.0127936601638794
      ],
      "type": "VEC3"
    },
    {
      "bufferView": 2,
      "byteOffset": 14114316,
      "componentType": 5126,
      "count": 233,
      "max": [
        0.0033998829312622547,
        -0.9980291724205017,
        0.06270183622837067
      ],
      "min": [
        -0.0020999503321945667,
        -1.0,
        -0.053298741579055786
      ],
      "type": "VEC3"
    },
    {
      "bufferView": 3,
      "byteOffset": 9407680,
      "componentType": 5126,
      "count": 233,
      "max": [
        0.9999998211860657,
        0.036264434456825256,
        0.9588901400566101,
        -1.0
      ],
      "min": [
        -0.9999942183494568,
        -0.038018662482500076,
        -0.9993948340415955,
        -1.0
      ],
      "type": "VEC4"
    },
    {
      "bufferView": 1,
      "byteOffset": 18815360,
      "componentType": 5126,
      "count": 233,
      "max": [
        1.0657627582550049,
        39.848976135253906
      ],
      "min": [
        -0.05466417223215103,
        -38.82424545288086
      ],
      "type": "VEC2"
    },
    {
      "bufferView": 1,
      "byteOffset": 18817224,
      "componentType": 5126,
      "count": 233,
      "max": [
        1.0657627582550049,
        39.848976135253906
      ],
      "min": [
        -0.05466417223215103,
        -38.82424545288086
      ],
      "type": "VEC2"
    },
    {
      "bufferView": 0,
      "byteOffset": 3995136,
      "componentType": 5125,
      "count": 600,
      "type": "SCALAR"
    }
  ],
  "asset": {
    "extras": {
      "author": "nchistov (https://sketchfab.com/nchistov)",
      "license": "CC-BY-4.0 (http://creativecommons.org/licenses/by/4.0/)",
      "source": "https://sketchfab.com/3d-models/simple-landscape-45f1203d604c4b9c9560acb27b026ad8",
      "title": "Simple Landscape"
    },
    "generator": "Sketchfab-16.73.0",
    "version": "2.0"
  },
  "bufferViews": [
    {
      "buffer": 0,
      "byteLength": 3997536,
      "name": "floatBufferViews",
      "target": 34963
    },
    {
      "buffer": 0,
      "byteLength": 18819088,
      "byteOffset": 3997536,
      "byteStride": 8,
      "name": "floatBufferViews",
      "target": 34962
    },
    {
      "buffer": 0,
      "byteLength": 14117112,
      "byteOffset": 22816624,
      "byteStride": 12,
      "name": "floatBufferViews",
      "target": 34962
    },
    {
      "buffer": 0,
      "byteLength": 9411408,
      "byteOffset": 36933736,
      "byteStride": 16,
      "name": "floatBufferViews",
      "target": 34962
    }
  ],
  "buffers": [
    {
      "byteLength": 46345144,
      "uri": "scene.bin"
    }
  ],
  "images": [
    {
      "uri": "textures/Sand_baseColor.png"
    },
    {
      "uri": "textures/Sand_metallicRoughness.png"
    },
    {
      "uri": "textures/Sand_normal.png"
    },
    {
      "uri": "textures/Material.001_baseColor.png"
    },
    {
      "uri": "textures/Material.001_normal.png"
    }
  ],
  "materials": [
    {
      "doubleSided": true,
      "name": "Sand",
      "normalTexture": {
        "index": 2,
        "texCoord": 2
      },
      "pbrMetallicRoughness": {
        "baseColorTexture": {
          "index": 0
        },
        "metallicFactor": 0.0,
        "metallicRoughnessTexture": {
          "index": 1,
          "texCoord": 1
        }
      }
    },
    {
      "doubleSided": true,
      "name": "Material.001",
      "normalTexture": {
        "index": 4
      },
      "pbrMetallicRoughness": {
        "baseColorTexture": {
          "index": 3
        },
        "metallicFactor": 0.0,
        "roughnessFactor": 0.5
      }
    }
  ],
  "meshes": [
    {
      "name": "Object_0",
      "primitives": [
        {
          "attributes": {
            "NORMAL": 1,
            "POSITION": 0,
            "TANGENT": 2,
            "TEXCOORD_0": 3,
            "TEXCOORD_1": 4,
            "TEXCOORD_2": 5,
            "TEXCOORD_3": 6
          },
          "indices": 7,
          "material": 0,
          "mode": 4
        }
      ]
    },
    {
      "name": "Object_1",
      "primitives": [
        {
          "attributes": {
            "NORMAL": 9,
            "POSITION": 8,
            "TANGENT": 10,
            "TEXCOORD_0": 11,
            "TEXCOORD_1": 12,
            "TEXCOORD_2": 13,
            "TEXCOORD_3": 14
          },
          "indices": 15,
          "material": 0,
          "mode": 4
        }
      ]
    },
    {
      "name": "Object_2",
      "primitives": [
        {
          "attributes": {
            "NORMAL": 17,
            "POSITION": 16,
            "TANGENT": 18,
            "TEXCOORD_0": 19,
            "TEXCOORD_1": 20,
            "TEXCOORD_2": 21,
            "TEXCOORD_3": 22
          },
          "indices": 23,
          "material": 0,
          "mode": 4
        }
      ]
    },
    {
      "name": "Object_3",
      "primitives": [
        {
          "attributes": {
            "NORMAL": 25,
            "POSITION": 24,
            "TANGENT": 26,
            "TEXCOORD_0": 27,
            "TEXCOORD_1": 28,
            "TEXCOORD_2": 29,
            "TEXCOORD_3": 30
          },
          "indices": 31,
          "material": 0,
          "mode": 4
        }
      ]
    },
    {
      "name": "Object_4",
      "primitives": [
        {
          "attributes": {
            "NORMAL": 33,
            "POSITION": 32,
            "TANGENT": 34,
            "TEXCOORD_0": 35,
            "TEXCOORD_1": 36,
            "TEXCOORD_2": 37,
            "TEXCOORD_3": 38
          },
          "indices": 39,
          "material": 0,
          "mode": 4
        }
      ]
    },
    {
      "name": "Object_5",
      "primitives": [
        {
          "attributes": {
            "NORMAL": 41,
            "POSITION": 40,
            "TANGENT": 42,
            "TEXCOORD_0": 43,
            "TEXCOORD_1": 44,
            "TEXCOORD_2": 45,
            "TEXCOORD_3": 46
          },
          "indices": 47,
          "material": 0,
          "mode": 4
        }
      ]
    },
    {
      "name": "Object_6",
      "primitives": [
        {
          "attributes": {
            "NORMAL": 49,
            "POSITION": 48,
            "TANGENT": 50,
            "TEXCOORD_0": 51,
            "TEXCOORD_1": 52,
            "TEXCOORD_2": 53,
            "TEXCOORD_3": 54
          },
          "indices": 55,
          "material": 0,
          "mode": 4
        }
      ]
    },
    {
      "name": "Object_7",
      "primitives": [
        {
          "attributes": {
            "NORMAL": 57,
            "POSITION": 56,
            "TANGENT": 58,
            "TEXCOORD_0": 59,
            "TEXCOORD_1": 60,
            "TEXCOORD_2": 61,
            "TEXCOORD_3": 62
          },
          "indices": 63,
          "material": 0,
          "mode": 4
        }
      ]
    },
    {
      "name": "Object_8",
      "primitives": [
        {
          "attributes": {
            "NORMAL": 65,
            "POSITION": 64,
            "TANGENT": 66,
            "TEXCOORD_0": 67,
            "TEXCOORD_1": 68,
            "TEXCOORD_2": 69,
            "TEXCOORD_3": 70
          },
          "indices": 71,
          "material": 0,
          "mode": 4
        }
      ]
    },
    {
      "name": "Object_9",
      "primitives": [
        {
          "attributes": {
            "NORMAL": 73,
            "POSITION": 72,
            "TANGENT": 74,
            "TEXCOORD_0": 75,
            "TEXCOORD_1": 76
          },
          "indices": 77,
          "material": 1,
          "mode": 4
        }
      ]
    }
  ],
  "nodes": [
    {
      "children": [
        1
      ],
      "matrix": [
        1.0,
        0.0,
        0.0,
        0.0,
        0.0,
        2.220446049250313e-16,
        -1.0,
        0.0,
        0.0,
        1.0,
        2.220446049250313e-16,
        0.0,
        0.0,
        0.0,
        0.0,
        1.0
      ],
      "name": "Sketchfab_model"
    },
    {
      "children": [
        2
      ],
      "name": "root"
    },
    {
      "children": [
        3,
        13
      ],
      "matrix": [
        1.0,
        0.0,
        0.0,
        0.0,
        0.0,
        2.220446049250313e-16,
        1.0,
        0.0,
        0.0,
        -1.0,
        2.220446049250313e-16,
        0.0,
        0.0,
        0.0,
        0.0,
        1.0
      ],
      "name": "GLTF_SceneRootNode"
    },
    {
      "children": [
        4,
        5,
        6,
        7,
        8,
        9,
        10,
        11,
        12
      ],
      "name": "Plane_0"
    },
    {
      "mesh": 0,
      "name": "Object_4"
    },
    {
      "mesh": 1,
      "name": "Object_5"
    },
    {
      "mesh": 2,
      "name": "Object_6"
    },
    {
      "mesh": 3,
      "name": "Object_7"
    },
    {
      "mesh": 4,
      "name": "Object_8"
    },
    {
      "mesh": 5,
      "name": "Object_9"
    },
    {
      "mesh": 6,
      "name": "Object_10"
    },
    {
      "mesh": 7,
      "name": "Object_11"
    },
    {
      "mesh": 8,
      "name": "Object_12"
    },
    {
      "children": [
        14
      ],
      "matrix": [
        2.0,
        0.0,
        0.0,
        0.0,
        0.0,
        2.0,
        0.0,
        0.0,
        0.0,
        0.0,
        2.0,
        0.0,
        -5.4200029373168945,
        0.08262799680233002,
        -74.3064956665039,
        1.0
      ],
      "name": "Plane.001_1"
    },
    {
      "mesh": 9,
      "name": "Object_14"
    }
  ],
  "samplers": [
    {
      "magFilter": 9729,
      "minFilter": 9987,
      "wrapS": 10497,
      "wrapT": 10497
    }
  ],
  "scene": 0,
  "scenes": [
    {
      "name": "Sketchfab_Scene",
      "nodes": [
        0
      ]
    }
  ],
  "textures": [
    {
      "sampler": 0,
      "source": 0
    },
    {
      "sampler": 0,
      "source": 1
    },
    {
      "sampler": 0,
      "source": 2
    },
    {
      "sampler": 0,
      "source": 3
    },
    {
      "sampler": 0,
      "source": 4
    }
  ]
}
