{
  "accessors": [
    {
      "bufferView": 2,
      "componentType": 5126,
      "count": 644,
      "max": [
        54.668670654296875,
        1.2222676277160645,
        55.37162780761719
      ],
      "min": [
        -54.66864013671875,
        -1.2222580909729004,
        -55.37162780761719
      ],
      "type": "VEC3"
    },
    {
      "bufferView": 2,
      "byteOffset": 7728,
      "componentType": 5126,
      "count": 644,
      "max": [
        1.0,
        1.0,
        1.0
      ],
      "min": [
        -1.0,
        -1.0,
        -1.0
      ],
      "type": "VEC3"
    },
    {
      "bufferView": 3,
      "componentType": 5126,
      "count": 644,
      "max": [
        1.0,
        1.0,
        1.0,
        1.0
      ],
      "min": [
        -1.0,
        -1.0,
        -1.0,
        1.0
      ],
      "type": "VEC4"
    },
    {
      "bufferView": 1,
      "componentType": 5126,
      "count": 644,
      "max": [
        0.9947750568389893,
        0.998046875
      ],
      "min": [
        0.001953125,
        0.0019115246832370758
      ],
      "type": "VEC2"
    },
    {
      "bufferView": 1,
      "byteOffset": 5152,
      "componentType": 5126,
      "count": 644,
      "max": [
        0.9947750568389893,
        0.998046875
      ],
      "min": [
        0.001953125,
        0.0019115246832370758
      ],
      "type": "VEC2"
    },
    {
      "bufferView": 1,
      "byteOffset": 10304,
      "componentType": 5126,
      "count": 644,
      "max": [
        0.9947750568389893,
        0.998046875
      ],
      "min": [
        0.001953125,
        0.0019115246832370758
      ],
      "type": "VEC2"
    },
    {
      "bufferView": 0,
      "componentType": 5125,
      "count": 1344,
      "type": "SCALAR"
    }
  ],
  "asset": {
    "extras": {
      "author": "azzajess (https://sketchfab.com/azzajess)",
      "license": "CC-BY-4.0 (http://creativecommons.org/licenses/by/4.0/)",
      "source": "https://sketchfab.com/3d-models/sawblade-4d29279e700f4cd788378381b281217d",
      "title": "Sawblade"
    },
    "generator": "Sketchfab-12.67.0",
    "version": "2.0"
  },
  "bufferViews": [
    {
      "buffer": 0,
      "byteLength": 5376,
      "name": "floatBufferViews",
      "target": 34963
    },
    {
      "buffer": 0,
      "byteLength": 15456,
      "byteOffset": 5376,
      "byteStride": 8,
      "name": "floatBufferViews",
      "target": 34962
    },
    {
      "buffer": 0,
      "byteLength": 15456,
      "byteOffset": 20832,
      "byteStride": 12,
      "name": "floatBufferViews",
      "target": 34962
    },
    {
      "buffer": 0,
      "byteLength": 10304,
      "byteOffset": 36288,
      "byteStride": 16,
      "name": "floatBufferViews",
      "target": 34962
    }
  ],
  "buffers": [
    {
      "byteLength": 46592,
      "uri": "scene.bin"
    }
  ],
  "images": [
    {
      "uri": "textures/DeathChair_SawBlade_M_baseColor.png"
    },
    {
      "uri": "textures/DeathChair_SawBlade_M_metallicRoughness.png"
    },
    {
      "uri": "textures/DeathChair_SawBlade_M_emissive.png"
    },
    {
      "uri": "textures/DeathChair_SawBlade_M_normal.png"
    }
  ],
  "materials": [
    {
      "doubleSided": true,
      "emissiveFactor": [
        1.0,
        1.0,
        1.0
      ],
      "emissiveTexture": {
        "index": 2
      },
      "name": "DeathChair_SawBlade_M",
      "normalTexture": {
        "index": 3
      },
      "occlusionTexture": {
        "index": 1
      },
      "pbrMetallicRoughness": {
        "baseColorTexture": {
          "index": 0
        },
        "metallicRoughnessTexture": {
          "index": 1
        }
      }
    }
  ],
  "meshes": [
    {
      "name": "pCylinder13_DeathChair_SawBlade_M_0",
      "primitives": [
        {
          "attributes": {
            "NORMAL": 1,
            "POSITION": 0,
            "TANGENT": 2,
            "TEXCOORD_0": 3,
            "TEXCOORD_1": 4,
            "TEXCOORD_2": 5
          },
          "indices": 6,
          "material": 0,
          "mode": 4
        }
      ]
    }
  ],
  "nodes": [
    {
      "children": [
        1
      ],
      "matrix": [
        1.0,
        0.0,
        0.0,
        0.0,
        0.0,
        2.220446049250313e-16,
        -1.0,
        0.0,
        0.0,
        1.0,
        2.220446049250313e-16,
        0.0,
        0.0,
        0.0,
        0.0,
        1.0
      ],
      "name": "Sketchfab_model"
    },
    {
      "children": [
        2
      ],
      "matrix": [
        1.0,
        0.0,
        0.0,
        0.0,
        0.0,
        0.0,
        1.0,
        0.0,
        0.0,
        -1.0,
        0.0,
        0.0,
        0.0,
        0.0,
        0.0,
        1.0
      ],
      "name": "Sawblade.Fbx"
    },
    {
      "children": [
        3
      ],
      "name": "RootNode"
    },
    {
      "children": [
        4
      ],
      "name": "pCylinder13"
    },
    {
      "mesh": 0,
      "name": "pCylinder13_DeathChair_SawBlade_M_0"
    }
  ],
  "samplers": [
    {
      "magFilter": 9729,
      "minFilter": 9987,
      "wrapS": 10497,
      "wrapT": 10497
    }
  ],
  "scene": 0,
  "scenes": [
    {
      "name": "Sketchfab_Scene",
      "nodes": [
        0
      ]
    }
  ],
  "textures": [
    {
      "sampler": 0,
      "source": 0
    },
    {
      "sampler": 0,
      "source": 1
    },
    {
      "sampler": 0,
      "source": 2
    },
    {
      "sampler": 0,
      "source": 3
    }
  ]
}
