{
  "accessors": [
    {
      "bufferView": 2,
      "componentType": 5126,
      "count": 65532,
      "max": [
        -394.0946960449219,
        1492.68798828125,
        1599.56103515625
      ],
      "min": [
        -2500.0,
        1213.737060546875,
        -333.0893859863281
      ],
      "type": "VEC3"
    },
    {
      "bufferView": 2,
      "byteOffset": 786384,
      "componentType": 5126,
      "count": 65532,
      "max": [
        0.9912770986557007,
        0.9999996423721313,
        0.9898478984832764
      ],
      "min": [
        -0.9950271248817444,
        0.07552351802587509,
        -0.9898133277893066
      ],
      "type": "VEC3"
    },
    {
      "bufferView": 1,
      "componentType": 5126,
      "count": 65532,
      "max": [
        0.4211811125278473,
        0.5666177868843079
      ],
      "min": [
        0.0,
        0.1800878942012787
      ],
      "type": "VEC2"
    },
    {
      "bufferView": 1,
      "byteOffset": 524256,
      "componentType": 5126,
      "count": 65532,
      "max": [
        0.4211811125278473,
        0.5666177868843079
      ],
      "min": [
        0.0,
        0.1800878942012787
      ],
      "type": "VEC2"
    },
    {
      "bufferView": 1,
      "byteOffset": 1048512,
      "componentType": 5126,
      "count": 65532,
      "max": [
        0.4211811125278473,
        0.5666177868843079
      ],
      "min": [
        0.0,
        0.1800878942012787
      ],
      "type": "VEC2"
    },
    {
      "bufferView": 1,
      "byteOffset": 1572768,
      "componentType": 5126,
      "count": 65532,
      "max": [
        0.4211811125278473,
        0.5666177868843079
      ],
      "min": [
        0.0,
        0.1800878942012787
      ],
      "type": "VEC2"
    },
    {
      "bufferView": 1,
      "byteOffset": 2097024,
      "componentType": 5126,
      "count": 65532,
      "max": [
        0.4211811125278473,
        0.5666177868843079
      ],
      "min": [
        0.0,
        0.1800878942012787
      ],
      "type": "VEC2"
    },
    {
      "bufferView": 1,
      "byteOffset": 2621280,
      "componentType": 5126,
      "count": 65532,
      "max": [
        0.4211811125278473,
        0.5666177868843079
      ],
      "min": [
        0.0,
        0.1800878942012787
      ],
      "type": "VEC2"
    },
    {
      "bufferView": 1,
      "byteOffset": 3145536,
      "componentType": 5126,
      "count": 65532,
      "max": [
        0.4211811125278473,
        0.5666177868843079
      ],
      "min": [
        0.0,
        0.1800878942012787
      ],
      "type": "VEC2"
    },
    {
      "bufferView": 1,
      "byteOffset": 3669792,
      "componentType": 5126,
      "count": 65532,
      "max": [
        0.4211811125278473,
        0.5666177868843079
      ],
      "min": [
        0.0,
        0.1800878942012787
      ],
      "type": "VEC2"
    },
    {
      "bufferView": 1,
      "byteOffset": 4194048,
      "componentType": 5126,
      "count": 65532,
      "max": [
        0.4211811125278473,
        0.5666177868843079
      ],
      "min": [
        0.0,
        0.1800878942012787
      ],
      "type": "VEC2"
    },
    {
      "bufferView": 1,
      "byteOffset": 4718304,
      "componentType": 5126,
      "count": 65532,
      "max": [
        0.4211811125278473,
        0.5666177868843079
      ],
      "min": [
        0.0,
        0.1800878942012787
      ],
      "type": "VEC2"
    },
    {
      "bufferView": 0,
      "componentType": 5125,
      "count": 336003,
      "type": "SCALAR"
    },
    {
      "bufferView": 2,
      "byteOffset": 1572768,
      "componentType": 5126,
      "count": 65532,
      "max": [
        130.55149841308594,
        1619.6629638671875,
        1970.4739990234375
      ],
      "min": [
        -2500.0,
        1202.8819580078125,
        -152.51339721679688
      ],
      "type": "VEC3"
    },
    {
      "bufferView": 2,
      "byteOffset": 2359152,
      "componentType": 5126,
      "count": 65532,
      "max": [
        0.9931910634040833,
        0.9999983906745911,
        0.9906265735626221
      ],
      "min": [
        -0.99297696352005,
        0.08917249739170074,
        -0.9848521947860718
      ],
      "type": "VEC3"
    },
    {
      "bufferView": 1,
      "byteOffset": 5242560,
      "componentType": 5126,
      "count": 65532,
      "max": [
        0.5261102914810181,
        0.5305026769638062
      ],
      "min": [
        0.0,
        0.10590530186891556
      ],
      "type": "VEC2"
    },
    {
      "bufferView": 1,
      "byteOffset": 5766816,
      "componentType": 5126,
      "count": 65532,
      "max": [
        0.5261102914810181,
        0.5305026769638062
      ],
      "min": [
        0.0,
        0.10590530186891556
      ],
      "type": "VEC2"
    },
    {
      "bufferView": 1,
      "byteOffset": 6291072,
      "componentType": 5126,
      "count": 65532,
      "max": [
        0.5261102914810181,
        0.5305026769638062
      ],
      "min": [
        0.0,
        0.10590530186891556
      ],
      "type": "VEC2"
    },
    {
      "bufferView": 1,
      "byteOffset": 6815328,
      "componentType": 5126,
      "count": 65532,
      "max": [
        0.5261102914810181,
        0.5305026769638062
      ],
      "min": [
        0.0,
        0.10590530186891556
      ],
      "type": "VEC2"
    },
    {
      "bufferView": 1,
      "byteOffset": 7339584,
      "componentType": 5126,
      "count": 65532,
      "max": [
        0.5261102914810181,
        0.5305026769638062
      ],
      "min": [
        0.0,
        0.10590530186891556
      ],
      "type": "VEC2"
    },
    {
      "bufferView": 1,
      "byteOffset": 7863840,
      "componentType": 5126,
      "count": 65532,
      "max": [
        0.5261102914810181,
        0.5305026769638062
      ],
      "min": [
        0.0,
        0.10590530186891556
      ],
      "type": "VEC2"
    },
    {
      "bufferView": 1,
      "byteOffset": 8388096,
      "componentType": 5126,
      "count": 65532,
      "max": [
        0.5261102914810181,
        0.5305026769638062
      ],
      "min": [
        0.0,
        0.10590530186891556
      ],
      "type": "VEC2"
    },
    {
      "bufferView": 1,
      "byteOffset": 8912352,
      "componentType": 5126,
      "count": 65532,
      "max": [
        0.5261102914810181,
        0.5305026769638062
      ],
      "min": [
        0.0,
        0.10590530186891556
      ],
      "type": "VEC2"
    },
    {
      "bufferView": 1,
      "byteOffset": 9436608,
      "componentType": 5126,
      "count": 65532,
      "max": [
        0.5261102914810181,
        0.5305026769638062
      ],
      "min": [
        0.0,
        0.10590530186891556
      ],
      "type": "VEC2"
    },
    {
      "bufferView": 1,
      "byteOffset": 9960864,
      "componentType": 5126,
      "count": 65532,
      "max": [
        0.5261102914810181,
        0.5305026769638062
      ],
      "min": [
        0.0,
        0.10590530186891556
      ],
      "type": "VEC2"
    },
    {
      "bufferView": 0,
      "byteOffset": 1344012,
      "componentType": 5125,
      "count": 305655,
      "type": "SCALAR"
    },
    {
      "bufferView": 2,
      "byteOffset": 3145536,
      "componentType": 5126,
      "count": 65532,
      "max": [
        -1289.6529541015625,
        1582.541015625,
        2497.56005859375
      ],
      "min": [
        -2500.0,
        698.4141845703125,
        10.98095989227295
      ],
      "type": "VEC3"
    },
    {
      "bufferView": 2,
      "byteOffset": 3931920,
      "componentType": 5126,
      "count": 65532,
      "max": [
        0.9817529320716858,
        0.9999880194664001,
        0.9966914653778076
      ],
      "min": [
        -0.9999531507492065,
        0.007324899546802044,
        -0.9910640716552734
      ],
      "type": "VEC3"
    },
    {
      "bufferView": 1,
      "byteOffset": 10485120,
      "componentType": 5126,
      "count": 65532,
      "max": [
        0.2420693039894104,
        0.49780380725860596
      ],
      "min": [
        0.0,
        0.000488042802317068
      ],
      "type": "VEC2"
    },
    {
      "bufferView": 1,
      "byteOffset": 11009376,
      "componentType": 5126,
      "count": 65532,
      "max": [
        0.2420693039894104,
        0.49780380725860596
      ],
      "min": [
        0.0,
        0.000488042802317068
      ],
      "type": "VEC2"
    },
    {
      "bufferView": 1,
      "byteOffset": 11533632,
      "componentType": 5126,
      "count": 65532,
      "max": [
        0.2420693039894104,
        0.49780380725860596
      ],
      "min": [
        0.0,
        0.000488042802317068
      ],
      "type": "VEC2"
    },
    {
      "bufferView": 1,
      "byteOffset": 12057888,
      "componentType": 5126,
      "count": 65532,
      "max": [
        0.2420693039894104,
        0.49780380725860596
      ],
      "min": [
        0.0,
        0.000488042802317068
      ],
      "type": "VEC2"
    },
    {
      "bufferView": 1,
      "byteOffset": 12582144,
      "componentType": 5126,
      "count": 65532,
      "max": [
        0.2420693039894104,
        0.49780380725860596
      ],
      "min": [
        0.0,
        0.000488042802317068
      ],
      "type": "VEC2"
    },
    {
      "bufferView": 1,
      "byteOffset": 13106400,
      "componentType": 5126,
      "count": 65532,
      "max": [
        0.2420693039894104,
        0.49780380725860596
      ],
      "min": [
        0.0,
        0.000488042802317068
      ],
      "type": "VEC2"
    },
    {
      "bufferView": 1,
      "byteOffset": 13630656,
      "componentType": 5126,
      "count": 65532,
      "max": [
        0.2420693039894104,
        0.49780380725860596
      ],
      "min": [
        0.0,
        0.000488042802317068
      ],
      "type": "VEC2"
    },
    {
      "bufferView": 1,
      "byteOffset": 14154912,
      "componentType": 5126,
      "count": 65532,
      "max": [
        0.2420693039894104,
        0.49780380725860596
      ],
      "min": [
        0.0,
        0.000488042802317068
      ],
      "type": "VEC2"
    },
    {
      "bufferView": 1,
      "byteOffset": 14679168,
      "componentType": 5126,
      "count": 65532,
      "max": [
        0.2420693039894104,
        0.49780380725860596
      ],
      "min": [
        0.0,
        0.000488042802317068
      ],
      "type": "VEC2"
    },
    {
      "bufferView": 1,
      "byteOffset": 15203424,
      "componentType": 5126,
      "count": 65532,
      "max": [
        0.2420693039894104,
        0.49780380725860596
      ],
      "min": [
        0.0,
        0.000488042802317068
      ],
      "type": "VEC2"
    },
    {
      "bufferView": 0,
      "byteOffset": 2566632,
      "componentType": 5125,
      "count": 294720,
      "type": "SCALAR"
    },
    {
      "bufferView": 2,
      "byteOffset": 4718304,
      "componentType": 5126,
      "count": 65532,
      "max": [
        -1016.3489990234375,
        1710.22802734375,
        1248.1700439453125
      ],
      "min": [
        -2500.0,
        1127.196044921875,
        -1936.31005859375
      ],
      "type": "VEC3"
    },
    {
      "bufferView": 2,
      "byteOffset": 5504688,
      "componentType": 5126,
      "count": 65532,
      "max": [
        0.9947646856307983,
        0.9999988079071045,
        0.9961774349212646
      ],
      "min": [
        -0.9971350431442261,
        0.06731685996055603,
        -0.9929648041725159
      ],
      "type": "VEC3"
    },
    {
      "bufferView": 1,
      "byteOffset": 15727680,
      "componentType": 5126,
      "count": 65532,
      "max": [
        0.296730101108551,
        0.8872621059417725
      ],
      "min": [
        0.0,
        0.2503660023212433
      ],
      "type": "VEC2"
    },
    {
      "bufferView": 1,
      "byteOffset": 16251936,
      "componentType": 5126,
      "count": 65532,
      "max": [
        0.296730101108551,
        0.8872621059417725
      ],
      "min": [
        0.0,
        0.2503660023212433
      ],
      "type": "VEC2"
    },
    {
      "bufferView": 1,
      "byteOffset": 16776192,
      "componentType": 5126,
      "count": 65532,
      "max": [
        0.296730101108551,
        0.8872621059417725
      ],
      "min": [
        0.0,
        0.2503660023212433
      ],
      "type": "VEC2"
    },
    {
      "bufferView": 1,
      "byteOffset": 17300448,
      "componentType": 5126,
      "count": 65532,
      "max": [
        0.296730101108551,
        0.8872621059417725
      ],
      "min": [
        0.0,
        0.2503660023212433
      ],
      "type": "VEC2"
    },
    {
      "bufferView": 1,
      "byteOffset": 17824704,
      "componentType": 5126,
      "count": 65532,
      "max": [
        0.296730101108551,
        0.8872621059417725
      ],
      "min": [
        0.0,
        0.2503660023212433
      ],
      "type": "VEC2"
    },
    {
      "bufferView": 1,
      "byteOffset": 18348960,
      "componentType": 5126,
      "count": 65532,
      "max": [
        0.296730101108551,
        0.8872621059417725
      ],
      "min": [
        0.0,
        0.2503660023212433
      ],
      "type": "VEC2"
    },
    {
      "bufferView": 1,
      "byteOffset": 18873216,
      "componentType": 5126,
      "count": 65532,
      "max": [
        0.296730101108551,
        0.8872621059417725
      ],
      "min": [
        0.0,
        0.2503660023212433
      ],
      "type": "VEC2"
    },
    {
      "bufferView": 1,
      "byteOffset": 19397472,
      "componentType": 5126,
      "count": 65532,
      "max": [
        0.296730101108551,
        0.8872621059417725
      ],
      "min": [
        0.0,
        0.2503660023212433
      ],
      "type": "VEC2"
    },
    {
      "bufferView": 1,
      "byteOffset": 19921728,
      "componentType": 5126,
      "count": 65532,
      "max": [
        0.296730101108551,
        0.8872621059417725
      ],
      "min": [
        0.0,
        0.2503660023212433
      ],
      "type": "VEC2"
    },
    {
      "bufferView": 1,
      "byteOffset": 20445984,
      "componentType": 5126,
      "count": 65532,
      "max": [
        0.296730101108551,
        0.8872621059417725
      ],
      "min": [
        0.0,
        0.2503660023212433
      ],
      "type": "VEC2"
    },
    {
      "bufferView": 0,
      "byteOffset": 3745512,
      "componentType": 5125,
      "count": 324633,
      "type": "SCALAR"
    },
    {
      "bufferView": 2,
      "byteOffset": 6291072,
      "componentType": 5126,
      "count": 65532,
      "max": [
        -899.2191162109375,
        1787.176025390625,
        -694.2410888671875
      ],
      "min": [
        -2500.0,
        524.05078125,
        -2500.0
      ],
      "type": "VEC3"
    },
    {
      "bufferView": 2,
      "byteOffset": 7077456,
      "componentType": 5126,
      "count": 65532,
      "max": [
        0.9947940707206726,
        0.9999863505363464,
        0.9937068819999695
      ],
      "min": [
        -0.9992396235466003,
        0.013291549868881702,
        -0.9994334578514099
      ],
      "type": "VEC3"
    },
    {
      "bufferView": 1,
      "byteOffset": 20970240,
      "componentType": 5126,
      "count": 65532,
      "max": [
        0.32015618681907654,
        1.0
      ],
      "min": [
        0.0,
        0.6388481855392456
      ],
      "type": "VEC2"
    },
    {
      "bufferView": 1,
      "byteOffset": 21494496,
      "componentType": 5126,
      "count": 65532,
      "max": [
        0.32015618681907654,
        1.0
      ],
      "min": [
        0.0,
        0.6388481855392456
      ],
      "type": "VEC2"
    },
    {
      "bufferView": 1,
      "byteOffset": 22018752,
      "componentType": 5126,
      "count": 65532,
      "max": [
        0.32015618681907654,
        1.0
      ],
      "min": [
        0.0,
        0.6388481855392456
      ],
      "type": "VEC2"
    },
    {
      "bufferView": 1,
      "byteOffset": 22543008,
      "componentType": 5126,
      "count": 65532,
      "max": [
        0.32015618681907654,
        1.0
      ],
      "min": [
        0.0,
        0.6388481855392456
      ],
      "type": "VEC2"
    },
    {
      "bufferView": 1,
      "byteOffset": 23067264,
      "componentType": 5126,
      "count": 65532,
      "max": [
        0.32015618681907654,
        1.0
      ],
      "min": [
        0.0,
        0.6388481855392456
      ],
      "type": "VEC2"
    },
    {
      "bufferView": 1,
      "byteOffset": 23591520,
      "componentType": 5126,
      "count": 65532,
      "max": [
        0.32015618681907654,
        1.0
      ],
      "min": [
        0.0,
        0.6388481855392456
      ],
      "type": "VEC2"
    },
    {
      "bufferView": 1,
      "byteOffset": 24115776,
      "componentType": 5126,
      "count": 65532,
      "max": [
        0.32015618681907654,
        1.0
      ],
      "min": [
        0.0,
        0.6388481855392456
      ],
      "type": "VEC2"
    },
    {
      "bufferView": 1,
      "byteOffset": 24640032,
      "componentType": 5126,
      "count": 65532,
      "max": [
        0.32015618681907654,
        1.0
      ],
      "min": [
        0.0,
        0.6388481855392456
      ],
      "type": "VEC2"
    },
    {
      "bufferView": 1,
      "byteOffset": 25164288,
      "componentType": 5126,
      "count": 65532,
      "max": [
        0.32015618681907654,
        1.0
      ],
      "min": [
        0.0,
        0.6388481855392456
      ],
      "type": "VEC2"
    },
    {
      "bufferView": 1,
      "byteOffset": 25688544,
      "componentType": 5126,
      "count": 65532,
      "max": [
        0.32015618681907654,
        1.0
      ],
      "min": [
        0.0,
        0.6388481855392456
      ],
      "type": "VEC2"
    },
    {
      "bufferView": 0,
      "byteOffset": 5044044,
      "componentType": 5125,
      "count": 308304,
      "type": "SCALAR"
    },
    {
      "bufferView": 2,
      "byteOffset": 7863840,
      "componentType": 5126,
      "count": 65532,
      "max": [
        843.0942993164063,
        1787.176025390625,
        2087.60400390625
      ],
      "min": [
        -2492.678955078125,
        1173.76904296875,
        -1867.9840087890625
      ],
      "type": "VEC3"
    },
    {
      "bufferView": 2,
      "byteOffset": 8650224,
      "componentType": 5126,
      "count": 65532,
      "max": [
        0.994006335735321,
        0.9999997615814209,
        0.9830991625785828
      ],
      "min": [
        -0.9935387372970581,
        0.07846315205097198,
        -0.9784079790115356
      ],
      "type": "VEC3"
    },
    {
      "bufferView": 1,
      "byteOffset": 26212800,
      "componentType": 5126,
      "count": 65532,
      "max": [
        0.66861891746521,
        0.8735969066619873
      ],
      "min": [
        0.0014641289599239826,
        0.08247923851013184
      ],
      "type": "VEC2"
    },
    {
      "bufferView": 1,
      "byteOffset": 26737056,
      "componentType": 5126,
      "count": 65532,
      "max": [
        0.66861891746521,
        0.8735969066619873
      ],
      "min": [
        0.0014641289599239826,
        0.08247923851013184
      ],
      "type": "VEC2"
    },
    {
      "bufferView": 1,
      "byteOffset": 27261312,
      "componentType": 5126,
      "count": 65532,
      "max": [
        0.66861891746521,
        0.8735969066619873
      ],
      "min": [
        0.0014641289599239826,
        0.08247923851013184
      ],
      "type": "VEC2"
    },
    {
      "bufferView": 1,
      "byteOffset": 27785568,
      "componentType": 5126,
      "count": 65532,
      "max": [
        0.66861891746521,
        0.8735969066619873
      ],
      "min": [
        0.0014641289599239826,
        0.08247923851013184
      ],
      "type": "VEC2"
    },
    {
      "bufferView": 1,
      "byteOffset": 28309824,
      "componentType": 5126,
      "count": 65532,
      "max": [
        0.66861891746521,
        0.8735969066619873
      ],
      "min": [
        0.0014641289599239826,
        0.08247923851013184
      ],
      "type": "VEC2"
    },
    {
      "bufferView": 1,
      "byteOffset": 28834080,
      "componentType": 5126,
      "count": 65532,
      "max": [
        0.66861891746521,
        0.8735969066619873
      ],
      "min": [
        0.0014641289599239826,
        0.08247923851013184
      ],
      "type": "VEC2"
    },
    {
      "bufferView": 1,
      "byteOffset": 29358336,
      "componentType": 5126,
      "count": 65532,
      "max": [
        0.66861891746521,
        0.8735969066619873
      ],
      "min": [
        0.0014641289599239826,
        0.08247923851013184
      ],
      "type": "VEC2"
    },
    {
      "bufferView": 1,
      "byteOffset": 29882592,
      "componentType": 5126,
      "count": 65532,
      "max": [
        0.66861891746521,
        0.8735969066619873
      ],
      "min": [
        0.0014641289599239826,
        0.08247923851013184
      ],
      "type": "VEC2"
    },
    {
      "bufferView": 1,
      "byteOffset": 30406848,
      "componentType": 5126,
      "count": 65532,
      "max": [
        0.66861891746521,
        0.8735969066619873
      ],
      "min": [
        0.0014641289599239826,
        0.08247923851013184
      ],
      "type": "VEC2"
    },
    {
      "bufferView": 1,
      "byteOffset": 30931104,
      "componentType": 5126,
      "count": 65532,
      "max": [
        0.66861891746521,
        0.8735969066619873
      ],
      "min": [
        0.0014641289599239826,
        0.08247923851013184
      ],
      "type": "VEC2"
    },
    {
      "bufferView": 0,
      "byteOffset": 6277260,
      "componentType": 5125,
      "count": 305712,
      "type": "SCALAR"
    },
    {
      "bufferView": 2,
      "byteOffset": 9436608,
      "componentType": 5126,
      "count": 65532,
      "max": [
        1697.1689453125,
        1375.166015625,
        2497.56005859375
      ],
      "min": [
        -538.0673828125,
        1168.261962890625,
        -147.63290405273438
      ],
      "type": "VEC3"
    },
    {
      "bufferView": 2,
      "byteOffset": 10222992,
      "componentType": 5126,
      "count": 65532,
      "max": [
        0.9652647972106934,
        1.0,
        0.9952971935272217
      ],
      "min": [
        -0.9803339242935181,
        0.07159365713596344,
        -0.9567149877548218
      ],
      "type": "VEC3"
    },
    {
      "bufferView": 1,
      "byteOffset": 31455360,
      "componentType": 5126,
      "count": 65532,
      "max": [
        0.8394337892532349,
        0.5295265913009644
      ],
      "min": [
        0.3923864960670471,
        0.000488042802317068
      ],
      "type": "VEC2"
    },
    {
      "bufferView": 1,
      "byteOffset": 31979616,
      "componentType": 5126,
      "count": 65532,
      "max": [
        0.8394337892532349,
        0.5295265913009644
      ],
      "min": [
        0.3923864960670471,
        0.000488042802317068
      ],
      "type": "VEC2"
    },
    {
      "bufferView": 1,
      "byteOffset": 32503872,
      "componentType": 5126,
      "count": 65532,
      "max": [
        0.8394337892532349,
        0.5295265913009644
      ],
      "min": [
        0.3923864960670471,
        0.000488042802317068
      ],
      "type": "VEC2"
    },
    {
      "bufferView": 1,
      "byteOffset": 33028128,
      "componentType": 5126,
      "count": 65532,
      "max": [
        0.8394337892532349,
        0.5295265913009644
      ],
      "min": [
        0.3923864960670471,
        0.000488042802317068
      ],
      "type": "VEC2"
    },
    {
      "bufferView": 1,
      "byteOffset": 33552384,
      "componentType": 5126,
      "count": 65532,
      "max": [
        0.8394337892532349,
        0.5295265913009644
      ],
      "min": [
        0.3923864960670471,
        0.000488042802317068
      ],
      "type": "VEC2"
    },
    {
      "bufferView": 1,
      "byteOffset": 34076640,
      "componentType": 5126,
      "count": 65532,
      "max": [
        0.8394337892532349,
        0.5295265913009644
      ],
      "min": [
        0.3923864960670471,
        0.000488042802317068
      ],
      "type": "VEC2"
    },
    {
      "bufferView": 1,
      "byteOffset": 34600896,
      "componentType": 5126,
      "count": 65532,
      "max": [
        0.8394337892532349,
        0.5295265913009644
      ],
      "min": [
        0.3923864960670471,
        0.000488042802317068
      ],
      "type": "VEC2"
    },
    {
      "bufferView": 1,
      "byteOffset": 35125152,
      "componentType": 5126,
      "count": 65532,
      "max": [
        0.8394337892532349,
        0.5295265913009644
      ],
      "min": [
        0.3923864960670471,
        0.000488042802317068
      ],
      "type": "VEC2"
    },
    {
      "bufferView": 1,
      "byteOffset": 35649408,
      "componentType": 5126,
      "count": 65532,
      "max": [
        0.8394337892532349,
        0.5295265913009644
      ],
      "min": [
        0.3923864960670471,
        0.000488042802317068
      ],
      "type": "VEC2"
    },
    {
      "bufferView": 1,
      "byteOffset": 36173664,
      "componentType": 5126,
      "count": 65532,
      "max": [
        0.8394337892532349,
        0.5295265913009644
      ],
      "min": [
        0.3923864960670471,
        0.000488042802317068
      ],
      "type": "VEC2"
    },
    {
      "bufferView": 0,
      "byteOffset": 7500108,
      "componentType": 5125,
      "count": 324654,
      "type": "SCALAR"
    },
    {
      "bufferView": 2,
      "byteOffset": 11009376,
      "componentType": 5126,
      "count": 65532,
      "max": [
        2497.56005859375,
        1416.5770263671875,
        2497.56005859375
      ],
      "min": [
        420.93701171875,
        568.4730834960938,
        1257.9310302734375
      ],
      "type": "VEC3"
    },
    {
      "bufferView": 2,
      "byteOffset": 11795760,
      "componentType": 5126,
      "count": 65532,
      "max": [
        0.9999553561210632,
        0.9999999403953552,
        0.997730553150177
      ],
      "min": [
        -0.9871187806129456,
        0.006400242913514376,
        -0.9789666533470154
      ],
      "type": "VEC3"
    },
    {
      "bufferView": 1,
      "byteOffset": 36697920,
      "componentType": 5126,
      "count": 65532,
      "max": [
        0.9995120167732239,
        0.24841390550136566
      ],
      "min": [
        0.584187388420105,
        0.000488042802317068
      ],
      "type": "VEC2"
    },
    {
      "bufferView": 1,
      "byteOffset": 37222176,
      "componentType": 5126,
      "count": 65532,
      "max": [
        0.9995120167732239,
        0.24841390550136566
      ],
      "min": [
        0.584187388420105,
        0.000488042802317068
      ],
      "type": "VEC2"
    },
    {
      "bufferView": 1,
      "byteOffset": 37746432,
      "componentType": 5126,
      "count": 65532,
      "max": [
        0.9995120167732239,
        0.24841390550136566
      ],
      "min": [
        0.584187388420105,
        0.000488042802317068
      ],
      "type": "VEC2"
    },
    {
      "bufferView": 1,
      "byteOffset": 38270688,
      "componentType": 5126,
      "count": 65532,
      "max": [
        0.9995120167732239,
        0.24841390550136566
      ],
      "min": [
        0.584187388420105,
        0.000488042802317068
      ],
      "type": "VEC2"
    },
    {
      "bufferView": 1,
      "byteOffset": 38794944,
      "componentType": 5126,
      "count": 65532,
      "max": [
        0.9995120167732239,
        0.24841390550136566
      ],
      "min": [
        0.584187388420105,
        0.000488042802317068
      ],
      "type": "VEC2"
    },
    {
      "bufferView": 1,
      "byteOffset": 39319200,
      "componentType": 5126,
      "count": 65532,
      "max": [
        0.9995120167732239,
        0.24841390550136566
      ],
      "min": [
        0.584187388420105,
        0.000488042802317068
      ],
      "type": "VEC2"
    },
    {
      "bufferView": 1,
      "byteOffset": 39843456,
      "componentType": 5126,
      "count": 65532,
      "max": [
        0.9995120167732239,
        0.24841390550136566
      ],
      "min": [
        0.584187388420105,
        0.000488042802317068
      ],
      "type": "VEC2"
    },
    {
      "bufferView": 1,
      "byteOffset": 40367712,
      "componentType": 5126,
      "count": 65532,
      "max": [
        0.9995120167732239,
        0.24841390550136566
      ],
      "min": [
        0.584187388420105,
        0.000488042802317068
      ],
      "type": "VEC2"
    },
    {
      "bufferView": 1,
      "byteOffset": 40891968,
      "componentType": 5126,
      "count": 65532,
      "max": [
        0.9995120167732239,
        0.24841390550136566
      ],
      "min": [
        0.584187388420105,
        0.000488042802317068
      ],
      "type": "VEC2"
    },
    {
      "bufferView": 1,
      "byteOffset": 41416224,
      "componentType": 5126,
      "count": 65532,
      "max": [
        0.9995120167732239,
        0.24841390550136566
      ],
      "min": [
        0.584187388420105,
        0.000488042802317068
      ],
      "type": "VEC2"
    },
    {
      "bufferView": 0,
      "byteOffset": 8798724,
      "componentType": 5125,
      "count": 322986,
      "type": "SCALAR"
    },
    {
      "bufferView": 2,
      "byteOffset": 12582144,
      "componentType": 5126,
      "count": 65532,
      "max": [
        1248.1700439453125,
        1408.4599609375,
        2497.56005859375
      ],
      "min": [
        -1968.032958984375,
        1168.094970703125,
        1296.9739990234375
      ],
      "type": "VEC3"
    },
    {
      "bufferView": 2,
      "byteOffset": 13368528,
      "componentType": 5126,
      "count": 65532,
      "max": [
        0.9937537908554077,
        0.9999999403953552,
        0.9976386427879333
      ],
      "min": [
        -0.9924539923667908,
        0.05631033703684807,
        -0.9813652634620667
      ],
      "type": "VEC3"
    },
    {
      "bufferView": 1,
      "byteOffset": 41940480,
      "componentType": 5126,
      "count": 65532,
      "max": [
        0.7496340274810791,
        0.2406052052974701
      ],
      "min": [
        0.10639339685440063,
        0.000488042802317068
      ],
      "type": "VEC2"
    },
    {
      "bufferView": 1,
      "byteOffset": 42464736,
      "componentType": 5126,
      "count": 65532,
      "max": [
        0.7496340274810791,
        0.2406052052974701
      ],
      "min": [
        0.10639339685440063,
        0.000488042802317068
      ],
      "type": "VEC2"
    },
    {
      "bufferView": 1,
      "byteOffset": 42988992,
      "componentType": 5126,
      "count": 65532,
      "max": [
        0.7496340274810791,
        0.2406052052974701
      ],
      "min": [
        0.10639339685440063,
        0.000488042802317068
      ],
      "type": "VEC2"
    },
    {
      "bufferView": 1,
      "byteOffset": 43513248,
      "componentType": 5126,
      "count": 65532,
      "max": [
        0.7496340274810791,
        0.2406052052974701
      ],
      "min": [
        0.10639339685440063,
        0.000488042802317068
      ],
      "type": "VEC2"
    },
    {
      "bufferView": 1,
      "byteOffset": 44037504,
      "componentType": 5126,
      "count": 65532,
      "max": [
        0.7496340274810791,
        0.2406052052974701
      ],
      "min": [
        0.10639339685440063,
        0.000488042802317068
      ],
      "type": "VEC2"
    },
    {
      "bufferView": 1,
      "byteOffset": 44561760,
      "componentType": 5126,
      "count": 65532,
      "max": [
        0.7496340274810791,
        0.2406052052974701
      ],
      "min": [
        0.10639339685440063,
        0.000488042802317068
      ],
      "type": "VEC2"
    },
    {
      "bufferView": 1,
      "byteOffset": 45086016,
      "componentType": 5126,
      "count": 65532,
      "max": [
        0.7496340274810791,
        0.2406052052974701
      ],
      "min": [
        0.10639339685440063,
        0.000488042802317068
      ],
      "type": "VEC2"
    },
    {
      "bufferView": 1,
      "byteOffset": 45610272,
      "componentType": 5126,
      "count": 65532,
      "max": [
        0.7496340274810791,
        0.2406052052974701
      ],
      "min": [
        0.10639339685440063,
        0.000488042802317068
      ],
      "type": "VEC2"
    },
    {
      "bufferView": 1,
      "byteOffset": 46134528,
      "componentType": 5126,
      "count": 65532,
      "max": [
        0.7496340274810791,
        0.2406052052974701
      ],
      "min": [
        0.10639339685440063,
        0.000488042802317068
      ],
      "type": "VEC2"
    },
    {
      "bufferView": 1,
      "byteOffset": 46658784,
      "componentType": 5126,
      "count": 65532,
      "max": [
        0.7496340274810791,
        0.2406052052974701
      ],
      "min": [
        0.10639339685440063,
        0.000488042802317068
      ],
      "type": "VEC2"
    },
    {
      "bufferView": 0,
      "byteOffset": 10090668,
      "componentType": 5125,
      "count": 287853,
      "type": "SCALAR"
    },
    {
      "bufferView": 2,
      "byteOffset": 14154912,
      "componentType": 5126,
      "count": 65532,
      "max": [
        1926.550048828125,
        1442.198974609375,
        2497.56005859375
      ],
      "min": [
        -2487.799072265625,
        1178.8509521484375,
        -957.784423828125
      ],
      "type": "VEC3"
    },
    {
      "bufferView": 2,
      "byteOffset": 14941296,
      "componentType": 5126,
      "count": 65532,
      "max": [
        0.9916505813598633,
        0.9999993443489075,
        0.9983733296394348
      ],
      "min": [
        -0.9932659268379211,
        0.05133510008454323,
        -0.9825968742370605
      ],
      "type": "VEC3"
    },
    {
      "bufferView": 1,
      "byteOffset": 47183040,
      "componentType": 5126,
      "count": 65532,
      "max": [
        0.8853098750114441,
        0.6915568709373474
      ],
      "min": [
        0.002440215088427067,
        0.000488042802317068
      ],
      "type": "VEC2"
    },
    {
      "bufferView": 1,
      "byteOffset": 47707296,
      "componentType": 5126,
      "count": 65532,
      "max": [
        0.8853098750114441,
        0.6915568709373474
      ],
      "min": [
        0.002440215088427067,
        0.000488042802317068
      ],
      "type": "VEC2"
    },
    {
      "bufferView": 1,
      "byteOffset": 48231552,
      "componentType": 5126,
      "count": 65532,
      "max": [
        0.8853098750114441,
        0.6915568709373474
      ],
      "min": [
        0.002440215088427067,
        0.000488042802317068
      ],
      "type": "VEC2"
    },
    {
      "bufferView": 1,
      "byteOffset": 48755808,
      "componentType": 5126,
      "count": 65532,
      "max": [
        0.8853098750114441,
        0.6915568709373474
      ],
      "min": [
        0.002440215088427067,
        0.000488042802317068
      ],
      "type": "VEC2"
    },
    {
      "bufferView": 1,
      "byteOffset": 49280064,
      "componentType": 5126,
      "count": 65532,
      "max": [
        0.8853098750114441,
        0.6915568709373474
      ],
      "min": [
        0.002440215088427067,
        0.000488042802317068
      ],
      "type": "VEC2"
    },
    {
      "bufferView": 1,
      "byteOffset": 49804320,
      "componentType": 5126,
      "count": 65532,
      "max": [
        0.8853098750114441,
        0.6915568709373474
      ],
      "min": [
        0.002440215088427067,
        0.000488042802317068
      ],
      "type": "VEC2"
    },
    {
      "bufferView": 1,
      "byteOffset": 50328576,
      "componentType": 5126,
      "count": 65532,
      "max": [
        0.8853098750114441,
        0.6915568709373474
      ],
      "min": [
        0.002440215088427067,
        0.000488042802317068
      ],
      "type": "VEC2"
    },
    {
      "bufferView": 1,
      "byteOffset": 50852832,
      "componentType": 5126,
      "count": 65532,
      "max": [
        0.8853098750114441,
        0.6915568709373474
      ],
      "min": [
        0.002440215088427067,
        0.000488042802317068
      ],
      "type": "VEC2"
    },
    {
      "bufferView": 1,
      "byteOffset": 51377088,
      "componentType": 5126,
      "count": 65532,
      "max": [
        0.8853098750114441,
        0.6915568709373474
      ],
      "min": [
        0.002440215088427067,
        0.000488042802317068
      ],
      "type": "VEC2"
    },
    {
      "bufferView": 1,
      "byteOffset": 51901344,
      "componentType": 5126,
      "count": 65532,
      "max": [
        0.8853098750114441,
        0.6915568709373474
      ],
      "min": [
        0.002440215088427067,
        0.000488042802317068
      ],
      "type": "VEC2"
    },
    {
      "bufferView": 0,
      "byteOffset": 11242080,
      "componentType": 5125,
      "count": 295722,
      "type": "SCALAR"
    },
    {
      "bufferView": 2,
      "byteOffset": 15727680,
      "componentType": 5126,
      "count": 65532,
      "max": [
        2497.56005859375,
        1546.6590576171875,
        1321.3759765625
      ],
      "min": [
        262.322998046875,
        1209.85498046875,
        -1558.0770263671875
      ],
      "type": "VEC3"
    },
    {
      "bufferView": 2,
      "byteOffset": 16514064,
      "componentType": 5126,
      "count": 65532,
      "max": [
        0.9959042072296143,
        0.9999993443489075,
        0.9856712222099304
      ],
      "min": [
        -0.9829996824264526,
        0.06941813975572586,
        -0.9837984442710876
      ],
      "type": "VEC3"
    },
    {
      "bufferView": 1,
      "byteOffset": 52425600,
      "componentType": 5126,
      "count": 65532,
      "max": [
        0.9995120167732239,
        0.8116154074668884
      ],
      "min": [
        0.5524646043777466,
        0.23572470247745514
      ],
      "type": "VEC2"
    },
    {
      "bufferView": 1,
      "byteOffset": 52949856,
      "componentType": 5126,
      "count": 65532,
      "max": [
        0.9995120167732239,
        0.8116154074668884
      ],
      "min": [
        0.5524646043777466,
        0.23572470247745514
      ],
      "type": "VEC2"
    },
    {
      "bufferView": 1,
      "byteOffset": 53474112,
      "componentType": 5126,
      "count": 65532,
      "max": [
        0.9995120167732239,
        0.8116154074668884
      ],
      "min": [
        0.5524646043777466,
        0.23572470247745514
      ],
      "type": "VEC2"
    },
    {
      "bufferView": 1,
      "byteOffset": 53998368,
      "componentType": 5126,
      "count": 65532,
      "max": [
        0.9995120167732239,
        0.8116154074668884
      ],
      "min": [
        0.5524646043777466,
        0.23572470247745514
      ],
      "type": "VEC2"
    },
    {
      "bufferView": 1,
      "byteOffset": 54522624,
      "componentType": 5126,
      "count": 65532,
      "max": [
        0.9995120167732239,
        0.8116154074668884
      ],
      "min": [
        0.5524646043777466,
        0.23572470247745514
      ],
      "type": "VEC2"
    },
    {
      "bufferView": 1,
      "byteOffset": 55046880,
      "componentType": 5126,
      "count": 65532,
      "max": [
        0.9995120167732239,
        0.8116154074668884
      ],
      "min": [
        0.5524646043777466,
        0.23572470247745514
      ],
      "type": "VEC2"
    },
    {
      "bufferView": 1,
      "byteOffset": 55571136,
      "componentType": 5126,
      "count": 65532,
      "max": [
        0.9995120167732239,
        0.8116154074668884
      ],
      "min": [
        0.5524646043777466,
        0.23572470247745514
      ],
      "type": "VEC2"
    },
    {
      "bufferView": 1,
      "byteOffset": 56095392,
      "componentType": 5126,
      "count": 65532,
      "max": [
        0.9995120167732239,
        0.8116154074668884
      ],
      "min": [
        0.5524646043777466,
        0.23572470247745514
      ],
      "type": "VEC2"
    },
    {
      "bufferView": 1,
      "byteOffset": 56619648,
      "componentType": 5126,
      "count": 65532,
      "max": [
        0.9995120167732239,
        0.8116154074668884
      ],
      "min": [
        0.5524646043777466,
        0.23572470247745514
      ],
      "type": "VEC2"
    },
    {
      "bufferView": 1,
      "byteOffset": 57143904,
      "componentType": 5126,
      "count": 65532,
      "max": [
        0.9995120167732239,
        0.8116154074668884
      ],
      "min": [
        0.5524646043777466,
        0.23572470247745514
      ],
      "type": "VEC2"
    },
    {
      "bufferView": 0,
      "byteOffset": 12424968,
      "componentType": 5125,
      "count": 312765,
      "type": "SCALAR"
    },
    {
      "bufferView": 2,
      "byteOffset": 17300448,
      "componentType": 5126,
      "count": 65532,
      "max": [
        2497.56005859375,
        1808.7669677734375,
        135.43190002441406
      ],
      "min": [
        -1733.77294921875,
        1247.2139892578125,
        -2500.0
      ],
      "type": "VEC3"
    },
    {
      "bufferView": 2,
      "byteOffset": 18086832,
      "componentType": 5126,
      "count": 65532,
      "max": [
        0.9964593052864075,
        0.9999993443489075,
        0.9924868941307068
      ],
      "min": [
        -0.9944326281547546,
        0.06181882321834564,
        -0.9967044591903687
      ],
      "type": "VEC3"
    },
    {
      "bufferView": 1,
      "byteOffset": 57668160,
      "componentType": 5126,
      "count": 65532,
      "max": [
        0.9995120167732239,
        1.0
      ],
      "min": [
        0.1532454937696457,
        0.47291359305381775
      ],
      "type": "VEC2"
    },
    {
      "bufferView": 1,
      "byteOffset": 58192416,
      "componentType": 5126,
      "count": 65532,
      "max": [
        0.9995120167732239,
        1.0
      ],
      "min": [
        0.1532454937696457,
        0.47291359305381775
      ],
      "type": "VEC2"
    },
    {
      "bufferView": 1,
      "byteOffset": 58716672,
      "componentType": 5126,
      "count": 65532,
      "max": [
        0.9995120167732239,
        1.0
      ],
      "min": [
        0.1532454937696457,
        0.47291359305381775
      ],
      "type": "VEC2"
    },
    {
      "bufferView": 1,
      "byteOffset": 59240928,
      "componentType": 5126,
      "count": 65532,
      "max": [
        0.9995120167732239,
        1.0
      ],
      "min": [
        0.1532454937696457,
        0.47291359305381775
      ],
      "type": "VEC2"
    },
    {
      "bufferView": 1,
      "byteOffset": 59765184,
      "componentType": 5126,
      "count": 65532,
      "max": [
        0.9995120167732239,
        1.0
      ],
      "min": [
        0.1532454937696457,
        0.47291359305381775
      ],
      "type": "VEC2"
    },
    {
      "bufferView": 1,
      "byteOffset": 60289440,
      "componentType": 5126,
      "count": 65532,
      "max": [
        0.9995120167732239,
        1.0
      ],
      "min": [
        0.1532454937696457,
        0.47291359305381775
      ],
      "type": "VEC2"
    },
    {
      "bufferView": 1,
      "byteOffset": 60813696,
      "componentType": 5126,
      "count": 65532,
      "max": [
        0.9995120167732239,
        1.0
      ],
      "min": [
        0.1532454937696457,
        0.47291359305381775
      ],
      "type": "VEC2"
    },
    {
      "bufferView": 1,
      "byteOffset": 61337952,
      "componentType": 5126,
      "count": 65532,
      "max": [
        0.9995120167732239,
        1.0
      ],
      "min": [
        0.1532454937696457,
        0.47291359305381775
      ],
      "type": "VEC2"
    },
    {
      "bufferView": 1,
      "byteOffset": 61862208,
      "componentType": 5126,
      "count": 65532,
      "max": [
        0.9995120167732239,
        1.0
      ],
      "min": [
        0.1532454937696457,
        0.47291359305381775
      ],
      "type": "VEC2"
    },
    {
      "bufferView": 1,
      "byteOffset": 62386464,
      "componentType": 5126,
      "count": 65532,
      "max": [
        0.9995120167732239,
        1.0
      ],
      "min": [
        0.1532454937696457,
        0.47291359305381775
      ],
      "type": "VEC2"
    },
    {
      "bufferView": 0,
      "byteOffset": 13676028,
      "componentType": 5125,
      "count": 309156,
      "type": "SCALAR"
    },
    {
      "bufferView": 2,
      "byteOffset": 18873216,
      "componentType": 5126,
      "count": 65532,
      "max": [
        -398.9751892089844,
        1804.802001953125,
        -801.6104736328125
      ],
      "min": [
        -2475.597900390625,
        1108.9859619140625,
        -2500.0
      ],
      "type": "VEC3"
    },
    {
      "bufferView": 2,
      "byteOffset": 19659600,
      "componentType": 5126,
      "count": 65532,
      "max": [
        0.9934731125831604,
        0.9999962449073792,
        0.9943915605545044
      ],
      "min": [
        -0.9941607713699341,
        0.0564366951584816,
        -0.9981428384780884
      ],
      "type": "VEC3"
    },
    {
      "bufferView": 1,
      "byteOffset": 62910720,
      "componentType": 5126,
      "count": 65532,
      "max": [
        0.4202049970626831,
        1.0
      ],
      "min": [
        0.004880428779870272,
        0.6603221297264099
      ],
      "type": "VEC2"
    },
    {
      "bufferView": 1,
      "byteOffset": 63434976,
      "componentType": 5126,
      "count": 65532,
      "max": [
        0.4202049970626831,
        1.0
      ],
      "min": [
        0.004880428779870272,
        0.6603221297264099
      ],
      "type": "VEC2"
    },
    {
      "bufferView": 1,
      "byteOffset": 63959232,
      "componentType": 5126,
      "count": 65532,
      "max": [
        0.4202049970626831,
        1.0
      ],
      "min": [
        0.004880428779870272,
        0.6603221297264099
      ],
      "type": "VEC2"
    },
    {
      "bufferView": 1,
      "byteOffset": 64483488,
      "componentType": 5126,
      "count": 65532,
      "max": [
        0.4202049970626831,
        1.0
      ],
      "min": [
        0.004880428779870272,
        0.6603221297264099
      ],
      "type": "VEC2"
    },
    {
      "bufferView": 1,
      "byteOffset": 65007744,
      "componentType": 5126,
      "count": 65532,
      "max": [
        0.4202049970626831,
        1.0
      ],
      "min": [
        0.004880428779870272,
        0.6603221297264099
      ],
      "type": "VEC2"
    },
    {
      "bufferView": 1,
      "byteOffset": 65532000,
      "componentType": 5126,
      "count": 65532,
      "max": [
        0.4202049970626831,
        1.0
      ],
      "min": [
        0.004880428779870272,
        0.6603221297264099
      ],
      "type": "VEC2"
    },
    {
      "bufferView": 1,
      "byteOffset": 66056256,
      "componentType": 5126,
      "count": 65532,
      "max": [
        0.4202049970626831,
        1.0
      ],
      "min": [
        0.004880428779870272,
        0.6603221297264099
      ],
      "type": "VEC2"
    },
    {
      "bufferView": 1,
      "byteOffset": 66580512,
      "componentType": 5126,
      "count": 65532,
      "max": [
        0.4202049970626831,
        1.0
      ],
      "min": [
        0.004880428779870272,
        0.6603221297264099
      ],
      "type": "VEC2"
    },
    {
      "bufferView": 1,
      "byteOffset": 67104768,
      "componentType": 5126,
      "count": 65532,
      "max": [
        0.4202049970626831,
        1.0
      ],
      "min": [
        0.004880428779870272,
        0.6603221297264099
      ],
      "type": "VEC2"
    },
    {
      "bufferView": 1,
      "byteOffset": 67629024,
      "componentType": 5126,
      "count": 65532,
      "max": [
        0.4202049970626831,
        1.0
      ],
      "min": [
        0.004880428779870272,
        0.6603221297264099
      ],
      "type": "VEC2"
    },
    {
      "bufferView": 0,
      "byteOffset": 14912652,
      "componentType": 5125,
      "count": 304809,
      "type": "SCALAR"
    },
    {
      "bufferView": 2,
      "byteOffset": 20445984,
      "componentType": 5126,
      "count": 65532,
      "max": [
        1316.4959716796875,
        1788.5159912109375,
        -508.7847900390625
      ],
      "min": [
        -1250.6099853515625,
        1221.760986328125,
        -2500.0
      ],
      "type": "VEC3"
    },
    {
      "bufferView": 2,
      "byteOffset": 21232368,
      "componentType": 5126,
      "count": 65532,
      "max": [
        0.9920777678489685,
        0.9999973177909851,
        0.985389769077301
      ],
      "min": [
        -0.9867303371429443,
        0.05606209486722946,
        -0.9970800280570984
      ],
      "type": "VEC3"
    },
    {
      "bufferView": 1,
      "byteOffset": 68153280,
      "componentType": 5126,
      "count": 65532,
      "max": [
        0.7632992267608643,
        1.0
      ],
      "min": [
        0.24987800419330597,
        0.6017568707466125
      ],
      "type": "VEC2"
    },
    {
      "bufferView": 1,
      "byteOffset": 68677536,
      "componentType": 5126,
      "count": 65532,
      "max": [
        0.7632992267608643,
        1.0
      ],
      "min": [
        0.24987800419330597,
        0.6017568707466125
      ],
      "type": "VEC2"
    },
    {
      "bufferView": 1,
      "byteOffset": 69201792,
      "componentType": 5126,
      "count": 65532,
      "max": [
        0.7632992267608643,
        1.0
      ],
      "min": [
        0.24987800419330597,
        0.6017568707466125
      ],
      "type": "VEC2"
    },
    {
      "bufferView": 1,
      "byteOffset": 69726048,
      "componentType": 5126,
      "count": 65532,
      "max": [
        0.7632992267608643,
        1.0
      ],
      "min": [
        0.24987800419330597,
        0.6017568707466125
      ],
      "type": "VEC2"
    },
    {
      "bufferView": 1,
      "byteOffset": 70250304,
      "componentType": 5126,
      "count": 65532,
      "max": [
        0.7632992267608643,
        1.0
      ],
      "min": [
        0.24987800419330597,
        0.6017568707466125
      ],
      "type": "VEC2"
    },
    {
      "bufferView": 1,
      "byteOffset": 70774560,
      "componentType": 5126,
      "count": 65532,
      "max": [
        0.7632992267608643,
        1.0
      ],
      "min": [
        0.24987800419330597,
        0.6017568707466125
      ],
      "type": "VEC2"
    },
    {
      "bufferView": 1,
      "byteOffset": 71298816,
      "componentType": 5126,
      "count": 65532,
      "max": [
        0.7632992267608643,
        1.0
      ],
      "min": [
        0.24987800419330597,
        0.6017568707466125
      ],
      "type": "VEC2"
    },
    {
      "bufferView": 1,
      "byteOffset": 71823072,
      "componentType": 5126,
      "count": 65532,
      "max": [
        0.7632992267608643,
        1.0
      ],
      "min": [
        0.24987800419330597,
        0.6017568707466125
      ],
      "type": "VEC2"
    },
    {
      "bufferView": 1,
      "byteOffset": 72347328,
      "componentType": 5126,
      "count": 65532,
      "max": [
        0.7632992267608643,
        1.0
      ],
      "min": [
        0.24987800419330597,
        0.6017568707466125
      ],
      "type": "VEC2"
    },
    {
      "bufferView": 1,
      "byteOffset": 72871584,
      "componentType": 5126,
      "count": 65532,
      "max": [
        0.7632992267608643,
        1.0
      ],
      "min": [
        0.24987800419330597,
        0.6017568707466125
      ],
      "type": "VEC2"
    },
    {
      "bufferView": 0,
      "byteOffset": 16131888,
      "componentType": 5125,
      "count": 299976,
      "type": "SCALAR"
    },
    {
      "bufferView": 2,
      "byteOffset": 22018752,
      "componentType": 5126,
      "count": 65532,
      "max": [
        1926.550048828125,
        1830.8599853515625,
        -30.5026798248291
      ],
      "min": [
        -821.1322021484375,
        1193.2650146484375,
        -2500.0
      ],
      "type": "VEC3"
    },
    {
      "bufferView": 2,
      "byteOffset": 22805136,
      "componentType": 5126,
      "count": 65532,
      "max": [
        0.9941571950912476,
        0.9999969005584717,
        0.9946222901344299
      ],
      "min": [
        -0.9879097938537598,
        0.07439926266670227,
        -0.9968214631080627
      ],
      "type": "VEC3"
    },
    {
      "bufferView": 1,
      "byteOffset": 73395840,
      "componentType": 5126,
      "count": 65532,
      "max": [
        0.8853098750114441,
        1.0
      ],
      "min": [
        0.3357735872268677,
        0.5061004757881165
      ],
      "type": "VEC2"
    },
    {
      "bufferView": 1,
      "byteOffset": 73920096,
      "componentType": 5126,
      "count": 65532,
      "max": [
        0.8853098750114441,
        1.0
      ],
      "min": [
        0.3357735872268677,
        0.5061004757881165
      ],
      "type": "VEC2"
    },
    {
      "bufferView": 1,
      "byteOffset": 74444352,
      "componentType": 5126,
      "count": 65532,
      "max": [
        0.8853098750114441,
        1.0
      ],
      "min": [
        0.3357735872268677,
        0.5061004757881165
      ],
      "type": "VEC2"
    },
    {
      "bufferView": 1,
      "byteOffset": 74968608,
      "componentType": 5126,
      "count": 65532,
      "max": [
        0.8853098750114441,
        1.0
      ],
      "min": [
        0.3357735872268677,
        0.5061004757881165
      ],
      "type": "VEC2"
    },
    {
      "bufferView": 1,
      "byteOffset": 75492864,
      "componentType": 5126,
      "count": 65532,
      "max": [
        0.8853098750114441,
        1.0
      ],
      "min": [
        0.3357735872268677,
        0.5061004757881165
      ],
      "type": "VEC2"
    },
    {
      "bufferView": 1,
      "byteOffset": 76017120,
      "componentType": 5126,
      "count": 65532,
      "max": [
        0.8853098750114441,
        1.0
      ],
      "min": [
        0.3357735872268677,
        0.5061004757881165
      ],
      "type": "VEC2"
    },
    {
      "bufferView": 1,
      "byteOffset": 76541376,
      "componentType": 5126,
      "count": 65532,
      "max": [
        0.8853098750114441,
        1.0
      ],
      "min": [
        0.3357735872268677,
        0.5061004757881165
      ],
      "type": "VEC2"
    },
    {
      "bufferView": 1,
      "byteOffset": 77065632,
      "componentType": 5126,
      "count": 65532,
      "max": [
        0.8853098750114441,
        1.0
      ],
      "min": [
        0.3357735872268677,
        0.5061004757881165
      ],
      "type": "VEC2"
    },
    {
      "bufferView": 1,
      "byteOffset": 77589888,
      "componentType": 5126,
      "count": 65532,
      "max": [
        0.8853098750114441,
        1.0
      ],
      "min": [
        0.3357735872268677,
        0.5061004757881165
      ],
      "type": "VEC2"
    },
    {
      "bufferView": 1,
      "byteOffset": 78114144,
      "componentType": 5126,
      "count": 65532,
      "max": [
        0.8853098750114441,
        1.0
      ],
      "min": [
        0.3357735872268677,
        0.5061004757881165
      ],
      "type": "VEC2"
    },
    {
      "bufferView": 0,
      "byteOffset": 17331792,
      "componentType": 5125,
      "count": 304926,
      "type": "SCALAR"
    },
    {
      "bufferView": 2,
      "byteOffset": 23591520,
      "componentType": 5126,
      "count": 65532,
      "max": [
        1216.447021484375,
        1830.8599853515625,
        -157.393798828125
      ],
      "min": [
        -821.1322021484375,
        1240.946044921875,
        -2348.70703125
      ],
      "type": "VEC3"
    },
    {
      "bufferView": 2,
      "byteOffset": 24377904,
      "componentType": 5126,
      "count": 65532,
      "max": [
        0.9890252351760864,
        0.9999917149543762,
        0.9908049702644348
      ],
      "min": [
        -0.9915488958358765,
        0.05308597534894943,
        -0.9966621994972229
      ],
      "type": "VEC3"
    },
    {
      "bufferView": 1,
      "byteOffset": 78638400,
      "componentType": 5126,
      "count": 65532,
      "max": [
        0.7432894110679626,
        0.9697412848472595
      ],
      "min": [
        0.3357735872268677,
        0.5314788222312927
      ],
      "type": "VEC2"
    },
    {
      "bufferView": 1,
      "byteOffset": 79162656,
      "componentType": 5126,
      "count": 65532,
      "max": [
        0.7432894110679626,
        0.9697412848472595
      ],
      "min": [
        0.3357735872268677,
        0.5314788222312927
      ],
      "type": "VEC2"
    },
    {
      "bufferView": 1,
      "byteOffset": 79686912,
      "componentType": 5126,
      "count": 65532,
      "max": [
        0.7432894110679626,
        0.9697412848472595
      ],
      "min": [
        0.3357735872268677,
        0.5314788222312927
      ],
      "type": "VEC2"
    },
    {
      "bufferView": 1,
      "byteOffset": 80211168,
      "componentType": 5126,
      "count": 65532,
      "max": [
        0.7432894110679626,
        0.9697412848472595
      ],
      "min": [
        0.3357735872268677,
        0.5314788222312927
      ],
      "type": "VEC2"
    },
    {
      "bufferView": 1,
      "byteOffset": 80735424,
      "componentType": 5126,
      "count": 65532,
      "max": [
        0.7432894110679626,
        0.9697412848472595
      ],
      "min": [
        0.3357735872268677,
        0.5314788222312927
      ],
      "type": "VEC2"
    },
    {
      "bufferView": 1,
      "byteOffset": 81259680,
      "componentType": 5126,
      "count": 65532,
      "max": [
        0.7432894110679626,
        0.9697412848472595
      ],
      "min": [
        0.3357735872268677,
        0.5314788222312927
      ],
      "type": "VEC2"
    },
    {
      "bufferView": 1,
      "byteOffset": 81783936,
      "componentType": 5126,
      "count": 65532,
      "max": [
        0.7432894110679626,
        0.9697412848472595
      ],
      "min": [
        0.3357735872268677,
        0.5314788222312927
      ],
      "type": "VEC2"
    },
    {
      "bufferView": 1,
      "byteOffset": 82308192,
      "componentType": 5126,
      "count": 65532,
      "max": [
        0.7432894110679626,
        0.9697412848472595
      ],
      "min": [
        0.3357735872268677,
        0.5314788222312927
      ],
      "type": "VEC2"
    },
    {
      "bufferView": 1,
      "byteOffset": 82832448,
      "componentType": 5126,
      "count": 65532,
      "max": [
        0.7432894110679626,
        0.9697412848472595
      ],
      "min": [
        0.3357735872268677,
        0.5314788222312927
      ],
      "type": "VEC2"
    },
    {
      "bufferView": 1,
      "byteOffset": 83356704,
      "componentType": 5126,
      "count": 65532,
      "max": [
        0.7432894110679626,
        0.9697412848472595
      ],
      "min": [
        0.3357735872268677,
        0.5314788222312927
      ],
      "type": "VEC2"
    },
    {
      "bufferView": 0,
      "byteOffset": 18551496,
      "componentType": 5125,
      "count": 317610,
      "type": "SCALAR"
    },
    {
      "bufferView": 2,
      "byteOffset": 25164288,
      "componentType": 5126,
      "count": 65532,
      "max": [
        2495.1201171875,
        1796.7679443359375,
        -328.2090148925781
      ],
      "min": [
        -762.5670776367188,
        1185.782958984375,
        -2500.0
      ],
      "type": "VEC3"
    },
    {
      "bufferView": 2,
      "byteOffset": 25950672,
      "componentType": 5126,
      "count": 65532,
      "max": [
        0.99660325050354,
        0.9999995231628418,
        0.9921759366989136
      ],
      "min": [
        -0.9940834641456604,
        0.06082627922296524,
        -0.9981468319892883
      ],
      "type": "VEC3"
    },
    {
      "bufferView": 1,
      "byteOffset": 83880960,
      "componentType": 5126,
      "count": 65532,
      "max": [
        0.9990239143371582,
        1.0
      ],
      "min": [
        0.34748658537864685,
        0.5656418204307556
      ],
      "type": "VEC2"
    },
    {
      "bufferView": 1,
      "byteOffset": 84405216,
      "componentType": 5126,
      "count": 65532,
      "max": [
        0.9990239143371582,
        1.0
      ],
      "min": [
        0.34748658537864685,
        0.5656418204307556
      ],
      "type": "VEC2"
    },
    {
      "bufferView": 1,
      "byteOffset": 84929472,
      "componentType": 5126,
      "count": 65532,
      "max": [
        0.9990239143371582,
        1.0
      ],
      "min": [
        0.34748658537864685,
        0.5656418204307556
      ],
      "type": "VEC2"
    },
    {
      "bufferView": 1,
      "byteOffset": 85453728,
      "componentType": 5126,
      "count": 65532,
      "max": [
        0.9990239143371582,
        1.0
      ],
      "min": [
        0.34748658537864685,
        0.5656418204307556
      ],
      "type": "VEC2"
    },
    {
      "bufferView": 1,
      "byteOffset": 85977984,
      "componentType": 5126,
      "count": 65532,
      "max": [
        0.9990239143371582,
        1.0
      ],
      "min": [
        0.34748658537864685,
        0.5656418204307556
      ],
      "type": "VEC2"
    },
    {
      "bufferView": 1,
      "byteOffset": 86502240,
      "componentType": 5126,
      "count": 65532,
      "max": [
        0.9990239143371582,
        1.0
      ],
      "min": [
        0.34748658537864685,
        0.5656418204307556
      ],
      "type": "VEC2"
    },
    {
      "bufferView": 1,
      "byteOffset": 87026496,
      "componentType": 5126,
      "count": 65532,
      "max": [
        0.9990239143371582,
        1.0
      ],
      "min": [
        0.34748658537864685,
        0.5656418204307556
      ],
      "type": "VEC2"
    },
    {
      "bufferView": 1,
      "byteOffset": 87550752,
      "componentType": 5126,
      "count": 65532,
      "max": [
        0.9990239143371582,
        1.0
      ],
      "min": [
        0.34748658537864685,
        0.5656418204307556
      ],
      "type": "VEC2"
    },
    {
      "bufferView": 1,
      "byteOffset": 88075008,
      "componentType": 5126,
      "count": 65532,
      "max": [
        0.9990239143371582,
        1.0
      ],
      "min": [
        0.34748658537864685,
        0.5656418204307556
      ],
      "type": "VEC2"
    },
    {
      "bufferView": 1,
      "byteOffset": 88599264,
      "componentType": 5126,
      "count": 65532,
      "max": [
        0.9990239143371582,
        1.0
      ],
      "min": [
        0.34748658537864685,
        0.5656418204307556
      ],
      "type": "VEC2"
    },
    {
      "bufferView": 0,
      "byteOffset": 19821936,
      "componentType": 5125,
      "count": 265953,
      "type": "SCALAR"
    },
    {
      "bufferView": 2,
      "byteOffset": 26737056,
      "componentType": 5126,
      "count": 65532,
      "max": [
        2497.56005859375,
        1816.7840576171875,
        -59.78525161743164
      ],
      "min": [
        -1863.10400390625,
        685.5972290039063,
        -2500.0
      ],
      "type": "VEC3"
    },
    {
      "bufferView": 2,
      "byteOffset": 27523440,
      "componentType": 5126,
      "count": 65532,
      "max": [
        0.9961147904396057,
        0.9999995231628418,
        0.9963066577911377
      ],
      "min": [
        -0.9937634468078613,
        0.006390879862010479,
        -0.9999571442604065
      ],
      "type": "VEC3"
    },
    {
      "bufferView": 1,
      "byteOffset": 89123520,
      "componentType": 5126,
      "count": 65532,
      "max": [
        0.9995120167732239,
        1.0
      ],
      "min": [
        0.12737919390201569,
        0.5119569897651672
      ],
      "type": "VEC2"
    },
    {
      "bufferView": 1,
      "byteOffset": 89647776,
      "componentType": 5126,
      "count": 65532,
      "max": [
        0.9995120167732239,
        1.0
      ],
      "min": [
        0.12737919390201569,
        0.5119569897651672
      ],
      "type": "VEC2"
    },
    {
      "bufferView": 1,
      "byteOffset": 90172032,
      "componentType": 5126,
      "count": 65532,
      "max": [
        0.9995120167732239,
        1.0
      ],
      "min": [
        0.12737919390201569,
        0.5119569897651672
      ],
      "type": "VEC2"
    },
    {
      "bufferView": 1,
      "byteOffset": 90696288,
      "componentType": 5126,
      "count": 65532,
      "max": [
        0.9995120167732239,
        1.0
      ],
      "min": [
        0.12737919390201569,
        0.5119569897651672
      ],
      "type": "VEC2"
    },
    {
      "bufferView": 1,
      "byteOffset": 91220544,
      "componentType": 5126,
      "count": 65532,
      "max": [
        0.9995120167732239,
        1.0
      ],
      "min": [
        0.12737919390201569,
        0.5119569897651672
      ],
      "type": "VEC2"
    },
    {
      "bufferView": 1,
      "byteOffset": 91744800,
      "componentType": 5126,
      "count": 65532,
      "max": [
        0.9995120167732239,
        1.0
      ],
      "min": [
        0.12737919390201569,
        0.5119569897651672
      ],
      "type": "VEC2"
    },
    {
      "bufferView": 1,
      "byteOffset": 92269056,
      "componentType": 5126,
      "count": 65532,
      "max": [
        0.9995120167732239,
        1.0
      ],
      "min": [
        0.12737919390201569,
        0.5119569897651672
      ],
      "type": "VEC2"
    },
    {
      "bufferView": 1,
      "byteOffset": 92793312,
      "componentType": 5126,
      "count": 65532,
      "max": [
        0.9995120167732239,
        1.0
      ],
      "min": [
        0.12737919390201569,
        0.5119569897651672
      ],
      "type": "VEC2"
    },
    {
      "bufferView": 1,
      "byteOffset": 93317568,
      "componentType": 5126,
      "count": 65532,
      "max": [
        0.9995120167732239,
        1.0
      ],
      "min": [
        0.12737919390201569,
        0.5119569897651672
      ],
      "type": "VEC2"
    },
    {
      "bufferView": 1,
      "byteOffset": 93841824,
      "componentType": 5126,
      "count": 65532,
      "max": [
        0.9995120167732239,
        1.0
      ],
      "min": [
        0.12737919390201569,
        0.5119569897651672
      ],
      "type": "VEC2"
    },
    {
      "bufferView": 0,
      "byteOffset": 20885748,
      "componentType": 5125,
      "count": 258918,
      "type": "SCALAR"
    },
    {
      "bufferView": 2,
      "byteOffset": 28309824,
      "componentType": 5126,
      "count": 65532,
      "max": [
        2497.56005859375,
        1440.1290283203125,
        2434.114013671875
      ],
      "min": [
        -1231.0880126953125,
        1148.2230224609375,
        -2177.89208984375
      ],
      "type": "VEC3"
    },
    {
      "bufferView": 2,
      "byteOffset": 29096208,
      "componentType": 5126,
      "count": 65532,
      "max": [
        0.9966874718666077,
        0.9999997615814209,
        0.9847355484962463
      ],
      "min": [
        -0.9815833568572998,
        0.07734600454568863,
        -0.9856230616569519
      ],
      "type": "VEC3"
    },
    {
      "bufferView": 1,
      "byteOffset": 94366080,
      "componentType": 5126,
      "count": 65532,
      "max": [
        0.9995120167732239,
        0.9355782866477966
      ],
      "min": [
        0.2537823021411896,
        0.013177160173654556
      ],
      "type": "VEC2"
    },
    {
      "bufferView": 1,
      "byteOffset": 94890336,
      "componentType": 5126,
      "count": 65532,
      "max": [
        0.9995120167732239,
        0.9355782866477966
      ],
      "min": [
        0.2537823021411896,
        0.013177160173654556
      ],
      "type": "VEC2"
    },
    {
      "bufferView": 1,
      "byteOffset": 95414592,
      "componentType": 5126,
      "count": 65532,
      "max": [
        0.9995120167732239,
        0.9355782866477966
      ],
      "min": [
        0.2537823021411896,
        0.013177160173654556
      ],
      "type": "VEC2"
    },
    {
      "bufferView": 1,
      "byteOffset": 95938848,
      "componentType": 5126,
      "count": 65532,
      "max": [
        0.9995120167732239,
        0.9355782866477966
      ],
      "min": [
        0.2537823021411896,
        0.013177160173654556
      ],
      "type": "VEC2"
    },
    {
      "bufferView": 1,
      "byteOffset": 96463104,
      "componentType": 5126,
      "count": 65532,
      "max": [
        0.9995120167732239,
        0.9355782866477966
      ],
      "min": [
        0.2537823021411896,
        0.013177160173654556
      ],
      "type": "VEC2"
    },
    {
      "bufferView": 1,
      "byteOffset": 96987360,
      "componentType": 5126,
      "count": 65532,
      "max": [
        0.9995120167732239,
        0.9355782866477966
      ],
      "min": [
        0.2537823021411896,
        0.013177160173654556
      ],
      "type": "VEC2"
    },
    {
      "bufferView": 1,
      "byteOffset": 97511616,
      "componentType": 5126,
      "count": 65532,
      "max": [
        0.9995120167732239,
        0.9355782866477966
      ],
      "min": [
        0.2537823021411896,
        0.013177160173654556
      ],
      "type": "VEC2"
    },
    {
      "bufferView": 1,
      "byteOffset": 98035872,
      "componentType": 5126,
      "count": 65532,
      "max": [
        0.9995120167732239,
        0.9355782866477966
      ],
      "min": [
        0.2537823021411896,
        0.013177160173654556
      ],
      "type": "VEC2"
    },
    {
      "bufferView": 1,
      "byteOffset": 98560128,
      "componentType": 5126,
      "count": 65532,
      "max": [
        0.9995120167732239,
        0.9355782866477966
      ],
      "min": [
        0.2537823021411896,
        0.013177160173654556
      ],
      "type": "VEC2"
    },
    {
      "bufferView": 1,
      "byteOffset": 99084384,
      "componentType": 5126,
      "count": 65532,
      "max": [
        0.9995120167732239,
        0.9355782866477966
      ],
      "min": [
        0.2537823021411896,
        0.013177160173654556
      ],
      "type": "VEC2"
    },
    {
      "bufferView": 0,
      "byteOffset": 21921420,
      "componentType": 5125,
      "count": 302442,
      "type": "SCALAR"
    },
    {
      "bufferView": 2,
      "byteOffset": 29882592,
      "componentType": 5126,
      "count": 65532,
      "max": [
        2497.56005859375,
        1481.448974609375,
        2495.1201171875
      ],
      "min": [
        1292.093994140625,
        568.4730834960938,
        -1235.968994140625
      ],
      "type": "VEC3"
    },
    {
      "bufferView": 2,
      "byteOffset": 30668976,
      "componentType": 5126,
      "count": 65532,
      "max": [
        0.9980831742286682,
        0.9999999403953552,
        0.9999603629112244
      ],
      "min": [
        -0.9791983366012573,
        0.0073055243119597435,
        -0.9908353090286255
      ],
      "type": "VEC3"
    },
    {
      "bufferView": 1,
      "byteOffset": 99608640,
      "componentType": 5126,
      "count": 65532,
      "max": [
        0.9995120167732239,
        0.7471938133239746
      ],
      "min": [
        0.7584186792373657,
        0.0009760857210494578
      ],
      "type": "VEC2"
    },
    {
      "bufferView": 1,
      "byteOffset": 100132896,
      "componentType": 5126,
      "count": 65532,
      "max": [
        0.9995120167732239,
        0.7471938133239746
      ],
      "min": [
        0.7584186792373657,
        0.0009760857210494578
      ],
      "type": "VEC2"
    },
    {
      "bufferView": 1,
      "byteOffset": 100657152,
      "componentType": 5126,
      "count": 65532,
      "max": [
        0.9995120167732239,
        0.7471938133239746
      ],
      "min": [
        0.7584186792373657,
        0.0009760857210494578
      ],
      "type": "VEC2"
    },
    {
      "bufferView": 1,
      "byteOffset": 101181408,
      "componentType": 5126,
      "count": 65532,
      "max": [
        0.9995120167732239,
        0.7471938133239746
      ],
      "min": [
        0.7584186792373657,
        0.0009760857210494578
      ],
      "type": "VEC2"
    },
    {
      "bufferView": 1,
      "byteOffset": 101705664,
      "componentType": 5126,
      "count": 65532,
      "max": [
        0.9995120167732239,
        0.7471938133239746
      ],
      "min": [
        0.7584186792373657,
        0.0009760857210494578
      ],
      "type": "VEC2"
    },
    {
      "bufferView": 1,
      "byteOffset": 102229920,
      "componentType": 5126,
      "count": 65532,
      "max": [
        0.9995120167732239,
        0.7471938133239746
      ],
      "min": [
        0.7584186792373657,
        0.0009760857210494578
      ],
      "type": "VEC2"
    },
    {
      "bufferView": 1,
      "byteOffset": 102754176,
      "componentType": 5126,
      "count": 65532,
      "max": [
        0.9995120167732239,
        0.7471938133239746
      ],
      "min": [
        0.7584186792373657,
        0.0009760857210494578
      ],
      "type": "VEC2"
    },
    {
      "bufferView": 1,
      "byteOffset": 103278432,
      "componentType": 5126,
      "count": 65532,
      "max": [
        0.9995120167732239,
        0.7471938133239746
      ],
      "min": [
        0.7584186792373657,
        0.0009760857210494578
      ],
      "type": "VEC2"
    },
    {
      "bufferView": 1,
      "byteOffset": 103802688,
      "componentType": 5126,
      "count": 65532,
      "max": [
        0.9995120167732239,
        0.7471938133239746
      ],
      "min": [
        0.7584186792373657,
        0.0009760857210494578
      ],
      "type": "VEC2"
    },
    {
      "bufferView": 1,
      "byteOffset": 104326944,
      "componentType": 5126,
      "count": 65532,
      "max": [
        0.9995120167732239,
        0.7471938133239746
      ],
      "min": [
        0.7584186792373657,
        0.0009760857210494578
      ],
      "type": "VEC2"
    },
    {
      "bufferView": 0,
      "byteOffset": 23131188,
      "componentType": 5125,
      "count": 288231,
      "type": "SCALAR"
    },
    {
      "bufferView": 2,
      "byteOffset": 31455360,
      "componentType": 5126,
      "count": 65532,
      "max": [
        2497.56005859375,
        1537.791015625,
        -3.660320997238159
      ],
      "min": [
        1296.9739990234375,
        1226.541015625,
        -2490.239013671875
      ],
      "type": "VEC3"
    },
    {
      "bufferView": 2,
      "byteOffset": 32241744,
      "componentType": 5126,
      "count": 65532,
      "max": [
        0.9986394643783569,
        0.9999995231628418,
        0.9958812594413757
      ],
      "min": [
        -0.9861979484558105,
        0.05043129622936249,
        -0.9959221482276917
      ],
      "type": "VEC3"
    },
    {
      "bufferView": 1,
      "byteOffset": 104851200,
      "componentType": 5126,
      "count": 65532,
      "max": [
        0.9995120167732239,
        0.9980478286743164
      ],
      "min": [
        0.7593948245048523,
        0.5007321238517761
      ],
      "type": "VEC2"
    },
    {
      "bufferView": 1,
      "byteOffset": 105375456,
      "componentType": 5126,
      "count": 65532,
      "max": [
        0.9995120167732239,
        0.9980478286743164
      ],
      "min": [
        0.7593948245048523,
        0.5007321238517761
      ],
      "type": "VEC2"
    },
    {
      "bufferView": 1,
      "byteOffset": 105899712,
      "componentType": 5126,
      "count": 65532,
      "max": [
        0.9995120167732239,
        0.9980478286743164
      ],
      "min": [
        0.7593948245048523,
        0.5007321238517761
      ],
      "type": "VEC2"
    },
    {
      "bufferView": 1,
      "byteOffset": 106423968,
      "componentType": 5126,
      "count": 65532,
      "max": [
        0.9995120167732239,
        0.9980478286743164
      ],
      "min": [
        0.7593948245048523,
        0.5007321238517761
      ],
      "type": "VEC2"
    },
    {
      "bufferView": 1,
      "byteOffset": 106948224,
      "componentType": 5126,
      "count": 65532,
      "max": [
        0.9995120167732239,
        0.9980478286743164
      ],
      "min": [
        0.7593948245048523,
        0.5007321238517761
      ],
      "type": "VEC2"
    },
    {
      "bufferView": 1,
      "byteOffset": 107472480,
      "componentType": 5126,
      "count": 65532,
      "max": [
        0.9995120167732239,
        0.9980478286743164
      ],
      "min": [
        0.7593948245048523,
        0.5007321238517761
      ],
      "type": "VEC2"
    },
    {
      "bufferView": 1,
      "byteOffset": 107996736,
      "componentType": 5126,
      "count": 65532,
      "max": [
        0.9995120167732239,
        0.9980478286743164
      ],
      "min": [
        0.7593948245048523,
        0.5007321238517761
      ],
      "type": "VEC2"
    },
    {
      "bufferView": 1,
      "byteOffset": 108520992,
      "componentType": 5126,
      "count": 65532,
      "max": [
        0.9995120167732239,
        0.9980478286743164
      ],
      "min": [
        0.7593948245048523,
        0.5007321238517761
      ],
      "type": "VEC2"
    },
    {
      "bufferView": 1,
      "byteOffset": 109045248,
      "componentType": 5126,
      "count": 65532,
      "max": [
        0.9995120167732239,
        0.9980478286743164
      ],
      "min": [
        0.7593948245048523,
        0.5007321238517761
      ],
      "type": "VEC2"
    },
    {
      "bufferView": 1,
      "byteOffset": 109569504,
      "componentType": 5126,
      "count": 65532,
      "max": [
        0.9995120167732239,
        0.9980478286743164
      ],
      "min": [
        0.7593948245048523,
        0.5007321238517761
      ],
      "type": "VEC2"
    },
    {
      "bufferView": 0,
      "byteOffset": 24284112,
      "componentType": 5125,
      "count": 253143,
      "type": "SCALAR"
    },
    {
      "bufferView": 2,
      "byteOffset": 33028128,
      "componentType": 5126,
      "count": 726,
      "max": [
        1858.2230224609375,
        1386.927001953125,
        -1250.6099853515625
      ],
      "min": [
        1296.9739990234375,
        1261.2490234375,
        -1523.9139404296875
      ],
      "type": "VEC3"
    },
    {
      "bufferView": 2,
      "byteOffset": 33036840,
      "componentType": 5126,
      "count": 726,
      "max": [
        0.9019147157669067,
        0.9999499917030334,
        0.8566698431968689
      ],
      "min": [
        -0.7926397919654846,
        0.3609216809272766,
        -0.7951820492744446
      ],
      "type": "VEC3"
    },
    {
      "bufferView": 1,
      "byteOffset": 110093760,
      "componentType": 5126,
      "count": 726,
      "max": [
        0.8716446757316589,
        0.8047828078269958
      ],
      "min": [
        0.7593948245048523,
        0.7501220107078552
      ],
      "type": "VEC2"
    },
    {
      "bufferView": 1,
      "byteOffset": 110099568,
      "componentType": 5126,
      "count": 726,
      "max": [
        0.8716446757316589,
        0.8047828078269958
      ],
      "min": [
        0.7593948245048523,
        0.7501220107078552
      ],
      "type": "VEC2"
    },
    {
      "bufferView": 1,
      "byteOffset": 110105376,
      "componentType": 5126,
      "count": 726,
      "max": [
        0.8716446757316589,
        0.8047828078269958
      ],
      "min": [
        0.7593948245048523,
        0.7501220107078552
      ],
      "type": "VEC2"
    },
    {
      "bufferView": 1,
      "byteOffset": 110111184,
      "componentType": 5126,
      "count": 726,
      "max": [
        0.8716446757316589,
        0.8047828078269958
      ],
      "min": [
        0.7593948245048523,
        0.7501220107078552
      ],
      "type": "VEC2"
    },
    {
      "bufferView": 1,
      "byteOffset": 110116992,
      "componentType": 5126,
      "count": 726,
      "max": [
        0.8716446757316589,
        0.8047828078269958
      ],
      "min": [
        0.7593948245048523,
        0.7501220107078552
      ],
      "type": "VEC2"
    },
    {
      "bufferView": 1,
      "byteOffset": 110122800,
      "componentType": 5126,
      "count": 726,
      "max": [
        0.8716446757316589,
        0.8047828078269958
      ],
      "min": [
        0.7593948245048523,
        0.7501220107078552
      ],
      "type": "VEC2"
    },
    {
      "bufferView": 1,
      "byteOffset": 110128608,
      "componentType": 5126,
      "count": 726,
      "max": [
        0.8716446757316589,
        0.8047828078269958
      ],
      "min": [
        0.7593948245048523,
        0.7501220107078552
      ],
      "type": "VEC2"
    },
    {
      "bufferView": 1,
      "byteOffset": 110134416,
      "componentType": 5126,
      "count": 726,
      "max": [
        0.8716446757316589,
        0.8047828078269958
      ],
      "min": [
        0.7593948245048523,
        0.7501220107078552
      ],
      "type": "VEC2"
    },
    {
      "bufferView": 1,
      "byteOffset": 110140224,
      "componentType": 5126,
      "count": 726,
      "max": [
        0.8716446757316589,
        0.8047828078269958
      ],
      "min": [
        0.7593948245048523,
        0.7501220107078552
      ],
      "type": "VEC2"
    },
    {
      "bufferView": 1,
      "byteOffset": 110146032,
      "componentType": 5126,
      "count": 726,
      "max": [
        0.8716446757316589,
        0.8047828078269958
      ],
      "min": [
        0.7593948245048523,
        0.7501220107078552
      ],
      "type": "VEC2"
    },
    {
      "bufferView": 0,
      "byteOffset": 25296684,
      "componentType": 5125,
      "count": 1668,
      "type": "SCALAR"
    }
  ],
  "asset": {
    "extras": {
      "author": "hirnlaich (https://sketchfab.com/hirnlaich)",
      "license": "CC-BY-4.0 (http://creativecommons.org/licenses/by/4.0/)",
      "source": "https://sketchfab.com/3d-models/wild-land-2162271957b24b4abcdbd8766907140f",
      "title": "Wild Land"
    },
    "generator": "Sketchfab-12.84.0",
    "version": "2.0"
  },
  "bufferViews": [
    {
      "buffer": 0,
      "byteLength": 25303356,
      "name": "floatBufferViews",
      "target": 34963
    },
    {
      "buffer": 0,
      "byteLength": 110151840,
      "byteOffset": 25303356,
      "byteStride": 8,
      "name": "floatBufferViews",
      "target": 34962
    },
    {
      "buffer": 0,
      "byteLength": 33045552,
      "byteOffset": 135455196,
      "byteStride": 12,
      "name": "floatBufferViews",
      "target": 34962
    }
  ],
  "buffers": [
    {
      "byteLength": 168500748,
      "uri": "scene.bin"
    }
  ],
  "images": [
    {
      "uri": "textures/WildLandMat_baseColor.png"
    }
  ],
  "materials": [
    {
      "doubleSided": true,
      "name": "WildLandMat",
      "pbrMetallicRoughness": {
        "baseColorTexture": {
          "index": 0
        },
        "metallicFactor": 0.0,
        "roughnessFactor": 0.9577051494623774
      }
    }
  ],
  "meshes": [
    {
      "name": "WildLand_WildLandMat_0",
      "primitives": [
        {
          "attributes": {
            "NORMAL": 1,
            "POSITION": 0,
            "TEXCOORD_0": 2,
            "TEXCOORD_1": 3,
            "TEXCOORD_2": 4,
            "TEXCOORD_3": 5,
            "TEXCOORD_4": 6,
            "TEXCOORD_5": 7,
            "TEXCOORD_6": 8,
            "TEXCOORD_7": 9,
            "TEXCOORD_8": 10,
            "TEXCOORD_9": 11
          },
          "indices": 12,
          "material": 0,
          "mode": 4
        }
      ]
    },
    {
      "name": "WildLand_WildLandMat_0",
      "primitives": [
        {
          "attributes": {
            "NORMAL": 14,
            "POSITION": 13,
            "TEXCOORD_0": 15,
            "TEXCOORD_1": 16,
            "TEXCOORD_2": 17,
            "TEXCOORD_3": 18,
            "TEXCOORD_4": 19,
            "TEXCOORD_5": 20,
            "TEXCOORD_6": 21,
            "TEXCOORD_7": 22,
            "TEXCOORD_8": 23,
            "TEXCOORD_9": 24
          },
          "indices": 25,
          "material": 0,
          "mode": 4
        }
      ]
    },
    {
      "name": "WildLand_WildLandMat_0",
      "primitives": [
        {
          "attributes": {
            "NORMAL": 27,
            "POSITION": 26,
            "TEXCOORD_0": 28,
            "TEXCOORD_1": 29,
            "TEXCOORD_2": 30,
            "TEXCOORD_3": 31,
            "TEXCOORD_4": 32,
            "TEXCOORD_5": 33,
            "TEXCOORD_6": 34,
            "TEXCOORD_7": 35,
            "TEXCOORD_8": 36,
            "TEXCOORD_9": 37
          },
          "indices": 38,
          "material": 0,
          "mode": 4
        }
      ]
    },
    {
      "name": "WildLand_WildLandMat_0",
      "primitives": [
        {
          "attributes": {
            "NORMAL": 40,
            "POSITION": 39,
            "TEXCOORD_0": 41,
            "TEXCOORD_1": 42,
            "TEXCOORD_2": 43,
            "TEXCOORD_3": 44,
            "TEXCOORD_4": 45,
            "TEXCOORD_5": 46,
            "TEXCOORD_6": 47,
            "TEXCOORD_7": 48,
            "TEXCOORD_8": 49,
            "TEXCOORD_9": 50
          },
          "indices": 51,
          "material": 0,
          "mode": 4
        }
      ]
    },
    {
      "name": "WildLand_WildLandMat_0",
      "primitives": [
        {
          "attributes": {
            "NORMAL": 53,
            "POSITION": 52,
            "TEXCOORD_0": 54,
            "TEXCOORD_1": 55,
            "TEXCOORD_2": 56,
            "TEXCOORD_3": 57,
            "TEXCOORD_4": 58,
            "TEXCOORD_5": 59,
            "TEXCOORD_6": 60,
            "TEXCOORD_7": 61,
            "TEXCOORD_8": 62,
            "TEXCOORD_9": 63
          },
          "indices": 64,
          "material": 0,
          "mode": 4
        }
      ]
    },
    {
      "name": "WildLand_WildLandMat_0",
      "primitives": [
        {
          "attributes": {
            "NORMAL": 66,
            "POSITION": 65,
            "TEXCOORD_0": 67,
            "TEXCOORD_1": 68,
            "TEXCOORD_2": 69,
            "TEXCOORD_3": 70,
            "TEXCOORD_4": 71,
            "TEXCOORD_5": 72,
            "TEXCOORD_6": 73,
            "TEXCOORD_7": 74,
            "TEXCOORD_8": 75,
            "TEXCOORD_9": 76
          },
          "indices": 77,
          "material": 0,
          "mode": 4
        }
      ]
    },
    {
      "name": "WildLand_WildLandMat_0",
      "primitives": [
        {
          "attributes": {
            "NORMAL": 79,
            "POSITION": 78,
            "TEXCOORD_0": 80,
            "TEXCOORD_1": 81,
            "TEXCOORD_2": 82,
            "TEXCOORD_3": 83,
            "TEXCOORD_4": 84,
            "TEXCOORD_5": 85,
            "TEXCOORD_6": 86,
            "TEXCOORD_7": 87,
            "TEXCOORD_8": 88,
            "TEXCOORD_9": 89
          },
          "indices": 90,
          "material": 0,
          "mode": 4
        }
      ]
    },
    {
      "name": "WildLand_WildLandMat_0",
      "primitives": [
        {
          "attributes": {
            "NORMAL": 92,
            "POSITION": 91,
            "TEXCOORD_0": 93,
            "TEXCOORD_1": 94,
            "TEXCOORD_2": 95,
            "TEXCOORD_3": 96,
            "TEXCOORD_4": 97,
            "TEXCOORD_5": 98,
            "TEXCOORD_6": 99,
            "TEXCOORD_7": 100,
            "TEXCOORD_8": 101,
            "TEXCOORD_9": 102
          },
          "indices": 103,
          "material": 0,
          "mode": 4
        }
      ]
    },
    {
      "name": "WildLand_WildLandMat_0",
      "primitives": [
        {
          "attributes": {
            "NORMAL": 105,
            "POSITION": 104,
            "TEXCOORD_0": 106,
            "TEXCOORD_1": 107,
            "TEXCOORD_2": 108,
            "TEXCOORD_3": 109,
            "TEXCOORD_4": 110,
            "TEXCOORD_5": 111,
            "TEXCOORD_6": 112,
            "TEXCOORD_7": 113,
            "TEXCOORD_8": 114,
            "TEXCOORD_9": 115
          },
          "indices": 116,
          "material": 0,
          "mode": 4
        }
      ]
    },
    {
      "name": "WildLand_WildLandMat_0",
      "primitives": [
        {
          "attributes": {
            "NORMAL": 118,
            "POSITION": 117,
            "TEXCOORD_0": 119,
            "TEXCOORD_1": 120,
            "TEXCOORD_2": 121,
            "TEXCOORD_3": 122,
            "TEXCOORD_4": 123,
            "TEXCOORD_5": 124,
            "TEXCOORD_6": 125,
            "TEXCOORD_7": 126,
            "TEXCOORD_8": 127,
            "TEXCOORD_9": 128
          },
          "indices": 129,
          "material": 0,
          "mode": 4
        }
      ]
    },
    {
      "name": "WildLand_WildLandMat_0",
      "primitives": [
        {
          "attributes": {
            "NORMAL": 131,
            "POSITION": 130,
            "TEXCOORD_0": 132,
            "TEXCOORD_1": 133,
            "TEXCOORD_2": 134,
            "TEXCOORD_3": 135,
            "TEXCOORD_4": 136,
            "TEXCOORD_5": 137,
            "TEXCOORD_6": 138,
            "TEXCOORD_7": 139,
            "TEXCOORD_8": 140,
            "TEXCOORD_9": 141
          },
          "indices": 142,
          "material": 0,
          "mode": 4
        }
      ]
    },
    {
      "name": "WildLand_WildLandMat_0",
      "primitives": [
        {
          "attributes": {
            "NORMAL": 144,
            "POSITION": 143,
            "TEXCOORD_0": 145,
            "TEXCOORD_1": 146,
            "TEXCOORD_2": 147,
            "TEXCOORD_3": 148,
            "TEXCOORD_4": 149,
            "TEXCOORD_5": 150,
            "TEXCOORD_6": 151,
            "TEXCOORD_7": 152,
            "TEXCOORD_8": 153,
            "TEXCOORD_9": 154
          },
          "indices": 155,
          "material": 0,
          "mode": 4
        }
      ]
    },
    {
      "name": "WildLand_WildLandMat_0",
      "primitives": [
        {
          "attributes": {
            "NORMAL": 157,
            "POSITION": 156,
            "TEXCOORD_0": 158,
            "TEXCOORD_1": 159,
            "TEXCOORD_2": 160,
            "TEXCOORD_3": 161,
            "TEXCOORD_4": 162,
            "TEXCOORD_5": 163,
            "TEXCOORD_6": 164,
            "TEXCOORD_7": 165,
            "TEXCOORD_8": 166,
            "TEXCOORD_9": 167
          },
          "indices": 168,
          "material": 0,
          "mode": 4
        }
      ]
    },
    {
      "name": "WildLand_WildLandMat_0",
      "primitives": [
        {
          "attributes": {
            "NORMAL": 170,
            "POSITION": 169,
            "TEXCOORD_0": 171,
            "TEXCOORD_1": 172,
            "TEXCOORD_2": 173,
            "TEXCOORD_3": 174,
            "TEXCOORD_4": 175,
            "TEXCOORD_5": 176,
            "TEXCOORD_6": 177,
            "TEXCOORD_7": 178,
            "TEXCOORD_8": 179,
            "TEXCOORD_9": 180
          },
          "indices": 181,
          "material": 0,
          "mode": 4
        }
      ]
    },
    {
      "name": "WildLand_WildLandMat_0",
      "primitives": [
        {
          "attributes": {
            "NORMAL": 183,
            "POSITION": 182,
            "TEXCOORD_0": 184,
            "TEXCOORD_1": 185,
            "TEXCOORD_2": 186,
            "TEXCOORD_3": 187,
            "TEXCOORD_4": 188,
            "TEXCOORD_5": 189,
            "TEXCOORD_6": 190,
            "TEXCOORD_7": 191,
            "TEXCOORD_8": 192,
            "TEXCOORD_9": 193
          },
          "indices": 194,
          "material": 0,
          "mode": 4
        }
      ]
    },
    {
      "name": "WildLand_WildLandMat_0",
      "primitives": [
        {
          "attributes": {
            "NORMAL": 196,
            "POSITION": 195,
            "TEXCOORD_0": 197,
            "TEXCOORD_1": 198,
            "TEXCOORD_2": 199,
            "TEXCOORD_3": 200,
            "TEXCOORD_4": 201,
            "TEXCOORD_5": 202,
            "TEXCOORD_6": 203,
            "TEXCOORD_7": 204,
            "TEXCOORD_8": 205,
            "TEXCOORD_9": 206
          },
          "indices": 207,
          "material": 0,
          "mode": 4
        }
      ]
    },
    {
      "name": "WildLand_WildLandMat_0",
      "primitives": [
        {
          "attributes": {
            "NORMAL": 209,
            "POSITION": 208,
            "TEXCOORD_0": 210,
            "TEXCOORD_1": 211,
            "TEXCOORD_2": 212,
            "TEXCOORD_3": 213,
            "TEXCOORD_4": 214,
            "TEXCOORD_5": 215,
            "TEXCOORD_6": 216,
            "TEXCOORD_7": 217,
            "TEXCOORD_8": 218,
            "TEXCOORD_9": 219
          },
          "indices": 220,
          "material": 0,
          "mode": 4
        }
      ]
    },
    {
      "name": "WildLand_WildLandMat_0",
      "primitives": [
        {
          "attributes": {
            "NORMAL": 222,
            "POSITION": 221,
            "TEXCOORD_0": 223,
            "TEXCOORD_1": 224,
            "TEXCOORD_2": 225,
            "TEXCOORD_3": 226,
            "TEXCOORD_4": 227,
            "TEXCOORD_5": 228,
            "TEXCOORD_6": 229,
            "TEXCOORD_7": 230,
            "TEXCOORD_8": 231,
            "TEXCOORD_9": 232
          },
          "indices": 233,
          "material": 0,
          "mode": 4
        }
      ]
    },
    {
      "name": "WildLand_WildLandMat_0",
      "primitives": [
        {
          "attributes": {
            "NORMAL": 235,
            "POSITION": 234,
            "TEXCOORD_0": 236,
            "TEXCOORD_1": 237,
            "TEXCOORD_2": 238,
            "TEXCOORD_3": 239,
            "TEXCOORD_4": 240,
            "TEXCOORD_5": 241,
            "TEXCOORD_6": 242,
            "TEXCOORD_7": 243,
            "TEXCOORD_8": 244,
            "TEXCOORD_9": 245
          },
          "indices": 246,
          "material": 0,
          "mode": 4
        }
      ]
    },
    {
      "name": "WildLand_WildLandMat_0",
      "primitives": [
        {
          "attributes": {
            "NORMAL": 248,
            "POSITION": 247,
            "TEXCOORD_0": 249,
            "TEXCOORD_1": 250,
            "TEXCOORD_2": 251,
            "TEXCOORD_3": 252,
            "TEXCOORD_4": 253,
            "TEXCOORD_5": 254,
            "TEXCOORD_6": 255,
            "TEXCOORD_7": 256,
            "TEXCOORD_8": 257,
            "TEXCOORD_9": 258
          },
          "indices": 259,
          "material": 0,
          "mode": 4
        }
      ]
    },
    {
      "name": "WildLand_WildLandMat_0",
      "primitives": [
        {
          "attributes": {
            "NORMAL": 261,
            "POSITION": 260,
            "TEXCOORD_0": 262,
            "TEXCOORD_1": 263,
            "TEXCOORD_2": 264,
            "TEXCOORD_3": 265,
            "TEXCOORD_4": 266,
            "TEXCOORD_5": 267,
            "TEXCOORD_6": 268,
            "TEXCOORD_7": 269,
            "TEXCOORD_8": 270,
            "TEXCOORD_9": 271
          },
          "indices": 272,
          "material": 0,
          "mode": 4
        }
      ]
    },
    {
      "name": "WildLand_WildLandMat_0",
      "primitives": [
        {
          "attributes": {
            "NORMAL": 274,
            "POSITION": 273,
            "TEXCOORD_0": 275,
            "TEXCOORD_1": 276,
            "TEXCOORD_2": 277,
            "TEXCOORD_3": 278,
            "TEXCOORD_4": 279,
            "TEXCOORD_5": 280,
            "TEXCOORD_6": 281,
            "TEXCOORD_7": 282,
            "TEXCOORD_8": 283,
            "TEXCOORD_9": 284
          },
          "indices": 285,
          "material": 0,
          "mode": 4
        }
      ]
    }
  ],
  "nodes": [
    {
      "children": [
        1
      ],
      "matrix": [
        1.0,
        0.0,
        0.0,
        0.0,
        0.0,
        2.220446049250313e-16,
        -1.0,
        0.0,
        0.0,
        1.0,
        2.220446049250313e-16,
        0.0,
        0.0,
        0.0,
        0.0,
        1.0
      ],
      "name": "Sketchfab_model"
    },
    {
      "children": [
        2
      ],
      "matrix": [
        0.009999999776482582,
        0.0,
        0.0,
        0.0,
        0.0,
        0.0,
        0.009999999776482582,
        0.0,
        0.0,
        -0.009999999776482582,
        0.0,
        0.0,
        0.0,
        0.0,
        0.0,
        1.0
      ],
      "name": "5914f7cdbc3f41229438f618385d7b5c.fbx"
    },
    {
      "children": [
        3
      ],
      "name": "RootNode"
    },
    {
      "children": [
        4
      ],
      "name": "WildLand_root"
    },
    {
      "children": [
        5,
        6,
        7,
        8,
        9,
        10,
        11,
        12,
        13,
        14,
        15,
        16,
        17,
        18,
        19,
        20,
        21,
        22,
        23,
        24,
        25,
        26
      ],
      "name": "WildLand"
    },
    {
      "mesh": 0,
      "name": "WildLand_WildLandMat_0"
    },
    {
      "mesh": 1,
      "name": "WildLand_WildLandMat_0"
    },
    {
      "mesh": 2,
      "name": "WildLand_WildLandMat_0"
    },
    {
      "mesh": 3,
      "name": "WildLand_WildLandMat_0"
    },
    {
      "mesh": 4,
      "name": "WildLand_WildLandMat_0"
    },
    {
      "mesh": 5,
      "name": "WildLand_WildLandMat_0"
    },
    {
      "mesh": 6,
      "name": "WildLand_WildLandMat_0"
    },
    {
      "mesh": 7,
      "name": "WildLand_WildLandMat_0"
    },
    {
      "mesh": 8,
      "name": "WildLand_WildLandMat_0"
    },
    {
      "mesh": 9,
      "name": "WildLand_WildLandMat_0"
    },
    {
      "mesh": 10,
      "name": "WildLand_WildLandMat_0"
    },
    {
      "mesh": 11,
      "name": "WildLand_WildLandMat_0"
    },
    {
      "mesh": 12,
      "name": "WildLand_WildLandMat_0"
    },
    {
      "mesh": 13,
      "name": "WildLand_WildLandMat_0"
    },
    {
      "mesh": 14,
      "name": "WildLand_WildLandMat_0"
    },
    {
      "mesh": 15,
      "name": "WildLand_WildLandMat_0"
    },
    {
      "mesh": 16,
      "name": "WildLand_WildLandMat_0"
    },
    {
      "mesh": 17,
      "name": "WildLand_WildLandMat_0"
    },
    {
      "mesh": 18,
      "name": "WildLand_WildLandMat_0"
    },
    {
      "mesh": 19,
      "name": "WildLand_WildLandMat_0"
    },
    {
      "mesh": 20,
      "name": "WildLand_WildLandMat_0"
    },
    {
      "mesh": 21,
      "name": "WildLand_WildLandMat_0"
    }
  ],
  "samplers": [
    {
      "magFilter": 9729,
      "minFilter": 9987,
      "wrapS": 10497,
      "wrapT": 10497
    }
  ],
  "scene": 0,
  "scenes": [
    {
      "name": "Sketchfab_Scene",
      "nodes": [
        0
      ]
    }
  ],
  "textures": [
    {
      "sampler": 0,
      "source": 0
    }
  ]
}
